<?xml version="1.0" encoding="utf-8"?>
<!-- Generator: Adobe Illustrator 23.0.1, SVG Export Plug-In . SVG Version: 6.00 Build 0)  -->
<svg version="1.1" id="图层_1" xmlns="http://www.w3.org/2000/svg" xmlns:xlink="http://www.w3.org/1999/xlink" x="0px" y="0px"
	 viewBox="0 0 335.8 376.4" style="enable-background:new 0 0 335.8 376.4;" xml:space="preserve">
<style type="text/css">
	.st0{fill:#F4F4F4;}
	.st1{fill:none;stroke:#F4F4F4;stroke-width:6;stroke-miterlimit:10;}
</style>
<g>
	<g>
		<path class="st0" d="M82.9,272.6c-1.1-2.3-2.5-4.9-4.4-7.8c-3.1,6.3-6.9,11.2-11.4,14.9c-0.8-1.3-2.4-3.1-3.6-4
			c4.7-3.4,8.7-8.9,11.7-15.8c-3.1-4.5-6.6-9-9.9-12.9l3.7-2.9c2.7,3.1,5.6,6.7,8.4,10.2c1.5-4.6,2.7-9.7,3.4-15.1H65.2v-4.8h16.9
			l0.9-0.2l3.2,0.9c-0.9,9.2-2.6,17.2-5.2,24c2.6,3.6,4.7,7.1,6.2,10L82.9,272.6z M111,235.2c-1.4,12.4-4.5,22.2-9.1,29.6
			c2.8,4.6,6.5,8.3,11.1,10.7c-1.2,1-2.8,2.9-3.6,4.3c-4.3-2.6-7.9-6.2-10.7-10.4c-3.4,4.3-7.6,7.7-12.2,10.2
			c-0.8-1.3-2.2-3.4-3.3-4.4c4.9-2.4,9.2-6,12.8-10.8c-3.4-6.9-5.5-15.4-7-25l1-0.2h-1.9v-4.8h18.8l0.9-0.2L111,235.2z M93.6,239.2
			c1.1,7.5,2.8,14.4,5.4,20.2c3.1-5.6,5.3-12.3,6.5-20.2H93.6z"/>
		<path class="st0" d="M166.1,274v4h-47.9v-4h21.1v-3.8h-17.2v-3.9h17.2v-3.1h-15.5v-16.7h15.5v-2.7h-20.9v-4h20.9v-3.2
			c-5.4,0.3-10.8,0.5-15.8,0.6c-0.1-1.2-0.6-2.9-1-3.9c12.3-0.3,27.1-1.3,35.7-2.8l2.5,3.9c-4.6,0.8-10.4,1.4-16.4,1.8v3.5h21.4v4
			h-21.4v2.7h16.4v16.7h-16.4v3.1h18.3v3.9h-18.3v3.8H166.1z M128.7,253.3h10.6V250h-10.6V253.3z M139.4,259.8v-3.3h-10.6v3.3H139.4
			z M144.3,250v3.3h11.3V250H144.3z M155.6,256.5h-11.3v3.3h11.3V256.5z"/>
		<path class="st0" d="M190.4,234.5c-1.6,4.6-3.6,10.3-5.4,14.6c3.8,4.3,4.6,8.2,4.6,11.4c0,3.2-0.6,5.5-2.3,6.6
			c-0.8,0.6-1.8,0.9-3,1.1c-1.1,0.2-2.5,0.2-3.8,0.1c-0.1-1.3-0.4-3.3-1.2-4.5c1.2,0.1,2.1,0.1,2.9,0.1c0.7-0.1,1.3-0.2,1.7-0.5
			c0.8-0.5,1.1-1.8,1.1-3.4c0-2.8-0.9-6.3-4.6-10.3c1.4-3.8,2.9-8.8,3.9-12.5H178v42.5h-4.7v-47h12.9l0.7-0.2L190.4,234.5z
			 M202,243.8c-0.1,2.5-0.2,5-0.4,7.4h15.2v2.1c-0.6,16.1-1.2,22.1-2.7,24.1c-1.1,1.3-2.2,1.8-3.9,2c-1.6,0.3-4.3,0.2-7.1,0.1
			c-0.1-1.5-0.6-3.5-1.5-4.9c2.6,0.3,5.2,0.3,6.2,0.3c0.9,0.1,1.4-0.2,1.9-0.7c1-1.2,1.6-6,2-18.5h-10.6
			c-1.2,10.2-4.5,18.6-13.8,23.8c-0.6-1.2-2.1-2.9-3.3-3.8c11.6-6.2,12.6-17.9,13-32h-7.8v-4.7h13.9c-0.4-2-1.4-5.3-2.3-7.7l4.6-1.1
			c1,2.5,2.1,5.7,2.6,7.7l-4.1,1.1h15.9v4.7H202z"/>
		<path class="st0" d="M233.8,254.4c-2-1.5-6.2-3.9-9.1-5.5l2.8-3.6c2.9,1.4,7.1,3.7,9.3,5L233.8,254.4z M236.5,261.9
			c-1.9,5.7-4.5,12.1-6.8,17.1l-4.5-2.6c2.1-4.2,5.1-11.1,7.2-17.2L236.5,261.9z M235.3,240.2c-1.9-1.6-5.8-4.1-8.6-5.8l3-3.5
			c2.7,1.5,6.7,3.8,8.7,5.3L235.3,240.2z M260.2,252.1v3.5h12.3v19.9c0,1.9-0.4,2.9-1.6,3.5c-1.3,0.6-3.3,0.6-6.3,0.6
			c-0.2-1-0.6-2.4-1.1-3.4c1.8,0.1,3.5,0.1,4.1,0.1c0.6,0,0.8-0.2,0.8-0.7v-16.1h-8.1v19.8h-4.1v-19.8h-7.9v20.1h-4.1v-23.9h12v-3.5
			h-11.9c-0.3,8.7-1.6,19.7-6.3,27.3c-0.9-0.8-2.8-2.1-4-2.6c5.3-8.4,5.7-20.6,5.7-29.2v-15.3h31.8v12.5h-27.3v2.8v0.6h28.8v4H260.2
			z M244.3,236.4v4.4h22.5v-4.4H244.3z M250.7,268.4c1.7,1.2,3.9,2.9,5,4l-2.2,2.5c-1.2-1.1-3.3-3-5-4.3L250.7,268.4z M250.8,261.2
			c1.6,1.1,3.8,2.6,4.9,3.5l-2.1,2.7c-1.1-1.1-3.3-2.7-4.9-3.9L250.8,261.2z M265.2,274.3c-1-1.1-3.2-2.9-4.8-4.1l2-2.3
			c1.7,1.1,3.8,2.7,4.9,3.8L265.2,274.3z M265.6,267.2c-1.1-1.1-3.3-2.7-4.9-3.9l2-2.2c1.6,1.1,3.9,2.6,4.9,3.6L265.6,267.2z"/>
	</g>
</g>
<path class="st1" d="M282.3,373.4H53.5C25.6,373.4,3,350.8,3,322.9V53.5C3,25.6,25.6,3,53.5,3h228.8c27.9,0,50.5,22.6,50.5,50.5
	v269.4C332.8,350.8,310.2,373.4,282.3,373.4z"/>
<g>
	<path class="st0" d="M164.6,202.9h-1.3l-0.5-0.2c-0.5-0.2-11.4-5.1-22.5-13.1c-6.6-4.8-11.9-9.6-15.7-14.4
		c-4.9-6.3-7.4-12.5-7.4-18.7v-48l2-0.4c0.1,0,8.7-1.7,18.4-4.7c12.5-3.9,21-8,24.6-12l1.8-2l1.9,1.9c9.8,9.8,42.8,16.8,43.1,16.9
		l2,0.4v48c0,6.1-2.5,12.4-7.5,18.7c-3.8,4.8-9.1,9.7-15.8,14.4c-11.2,8-22.1,12.9-22.6,13.1L164.6,202.9z M122.2,112.6v43.9
		c0,11.4,11.4,22,21,28.9c8.9,6.4,18,10.9,20.8,12.2c2.8-1.3,11.9-5.8,20.9-12.2c9.6-6.9,21-17.5,21-28.9v-43.9
		c-7.2-1.6-31.1-7.6-41.8-16.1c-4.8,4.1-13.2,8.1-25.1,11.8C131.8,110.5,125.3,112,122.2,112.6L122.2,112.6z"/>
	<path class="st0" d="M139.7,151.9c0-4.4,2.2-10,6.1-16.7c1.6-2.7,3.4-5.5,5.4-8.4c2.5-3.5,5-6.9,7.7-10.3c1.1-1.3,2.2-2.6,3.3-3.9
		l0.3-0.3l1.6-1.8l1.6,1.8l0.3,0.3c0.2,0.2,0.4,0.5,0.7,0.8c0.9,1,1.7,2.1,2.5,3.1c2.7,3.3,5.3,6.8,7.7,10.3c2,2.9,3.8,5.7,5.4,8.4
		c3.9,6.7,6.1,12.3,6.1,16.7c0,13.8-10.9,25-24.3,25S139.7,165.7,139.7,151.9 M162.2,119.3c-2.6,3.3-5.1,6.6-7.5,10
		c-1.9,2.8-3.7,5.5-5.2,8.1c-3.6,6.1-5.5,11.1-5.5,14.5c0,11.5,9,20.7,20.1,20.7c11.1,0,20.1-9.3,20.1-20.7c0-3.4-2-8.4-5.5-14.5
		c-1.5-2.6-3.2-5.3-5.2-8.1c-2.4-3.4-4.9-6.8-7.5-10c-0.6-0.7-1.2-1.5-1.8-2.2C163.5,117.7,162.9,118.5,162.2,119.3"/>
	<path class="st0" d="M164,169.5c-9.4,0-17-7.7-17-17.1s8.8-4.7,17,0c8.2,4.7,17-9.5,17,0S173.4,169.5,164,169.5"/>
</g>
</svg>
