<?xml version="1.0" encoding="utf-8"?>
<!-- Generator: Adobe Illustrator 23.0.1, SVG Export Plug-In . SVG Version: 6.00 Build 0)  -->
<svg version="1.1" id="图层_1" xmlns="http://www.w3.org/2000/svg" xmlns:xlink="http://www.w3.org/1999/xlink" x="0px" y="0px"
	 viewBox="0 0 335.8 376.4" style="enable-background:new 0 0 335.8 376.4;" xml:space="preserve">
<style type="text/css">
	.st0{fill:#F4F4F4;}
	.st1{fill:none;stroke:#F4F4F4;stroke-width:6;stroke-miterlimit:10;}
</style>
<g>
	<g>
		<path class="st0" d="M91,230.6c-0.1,2-0.1,4.8-0.4,8c0.8,6.7,4,28.1,22.7,36.4c-1.4,1.1-3,2.9-3.6,4.2
			c-12.6-6-18.5-17.8-21.3-27.4c-2.7,10.1-8.4,20.9-20.5,27.6c-0.9-1.3-2.5-2.9-4.1-4c21.9-11.4,21.4-36.4,21.5-45H91z"/>
		<path class="st0" d="M132.9,232c-1.2,3.6-2.8,7.3-4.5,10.8v36.7h-4.8v-28.4c-1.3,1.9-2.6,3.6-4,5.3c-0.5-1.2-1.9-3.9-2.8-5
			c4.6-5,8.8-12.9,11.4-20.7L132.9,232z M153.7,245.4c3.1,8.6,8.3,17.3,13.8,21.9c-1.2,0.9-2.9,2.6-3.8,4c-5-5-9.7-13.4-12.8-22.1
			v16.5h7.9v4.5h-7.9v9.2h-4.9v-9.2h-8v-4.5h8v-16.1c-3.3,8.8-7.9,16.9-13.2,21.9c-0.8-1.2-2.5-3-3.5-3.8
			c5.7-4.7,10.9-13.5,14.1-22.3h-11.7v-4.7h14.4v-10h4.9v10h15.3v4.7H153.7z"/>
		<path class="st0" d="M219.8,270.8v5h-48v-5h21v-29.4h-18.1v-5.2H217v5.2h-18.7v29.4H219.8z"/>
		<path class="st0" d="M273.1,265.1h-21.3v8.8c0,2.7-0.7,4.1-2.9,4.8c-2.2,0.8-5.4,0.8-10,0.8c-0.4-1.3-1.3-3.5-2.1-4.8
			c3.8,0.1,7.5,0.1,8.6,0.1c1-0.1,1.3-0.3,1.3-1v-8.7h-20.8v-4.6h20.8v-3.6c2.7-1,5.5-2.5,7.9-4h-19.5v-4.3h25.2l1-0.3l3.2,2.5
			c-3.4,3.1-8,6-12.7,8.1v1.7h21.3V265.1z M231.5,250.1h-4.7v-11h8.5c-1-1.9-2.6-4.3-4.2-6.3l4.2-1.9c1.9,2.2,4.1,5.2,5,7.1
			l-2.1,1.1h10.6c-0.8-2.2-2.3-5.3-3.8-7.5l4.4-1.7c1.7,2.5,3.6,5.8,4.2,8l-3,1.2h7.9c1.9-2.5,3.9-5.8,5-8.4l5.1,1.7
			c-1.5,2.3-3.2,4.7-4.8,6.7h8.3v11h-4.9v-6.6h-35.8V250.1z"/>
	</g>
</g>
<path class="st1" d="M282.3,373.4H53.5C25.6,373.4,3,350.8,3,322.9V53.5C3,25.6,25.6,3,53.5,3h228.8c27.9,0,50.5,22.6,50.5,50.5
	v269.4C332.8,350.8,310.2,373.4,282.3,373.4z"/>
<path class="st0" d="M220.9,135.7c-2.8-3.6-7.1-5.6-11.6-5.6h-26c1.4-4,2.4-8.2,2.7-12.4c0.5-6.5-0.5-12.2-2.9-16.6
	c-3-5.4-8-8.8-14.5-9.7c-3-0.4-5.5,0.1-7.6,1.7c-4.2,3.2-4.9,9.2-5.8,16.2c-0.7,5.6-1.5,11.9-4.2,16.4c-1.8,3-5.3,7-15,7h-10
	c-6.7,0-12.1,5.4-12.1,12.1v45.9c0,6.7,5.4,12.1,12.1,12.1h73.2c3.3,0,6.6-1.1,9.2-3.2c2.6-2.1,4.5-5,5.2-8.2l10.1-43.1
	C224.7,143.8,223.7,139.3,220.9,135.7L220.9,135.7z M121.9,190.7v-45.9c0-2.2,1.8-4,4-4h8.5v54h-8.5
	C123.7,194.7,121.9,192.9,121.9,190.7L121.9,190.7z M215.8,146.4l-10.1,43.1c-0.7,3.1-3.4,5.2-6.6,5.2h-56.6v-54.5
	c6.8-1.3,12-4.8,15.3-10.4c3.6-6,4.5-13.2,5.3-19.6c0.4-2.9,0.7-5.6,1.3-7.7c0.6-2.2,1.2-2.9,1.4-3.1c0.3-0.2,0.8-0.3,1.5-0.2
	c4.1,0.6,6.9,2.4,8.6,5.6c3.6,6.5,2,17.5-1.4,25.1c-0.8,1.8-0.7,3.9,0.4,5.5c1.1,1.6,2.9,2.6,4.8,2.6h29.4c2.1,0,4,0.9,5.3,2.6
	C215.8,142.3,216.3,144.4,215.8,146.4z"/>
</svg>
