<?xml version="1.0" encoding="utf-8"?>
<!-- Generator: Adobe Illustrator 23.0.1, SVG Export Plug-In . SVG Version: 6.00 Build 0)  -->
<svg version="1.1" id="图层_1" xmlns="http://www.w3.org/2000/svg" xmlns:xlink="http://www.w3.org/1999/xlink" x="0px" y="0px"
	 viewBox="0 0 335.8 376.4" style="enable-background:new 0 0 335.8 376.4;" xml:space="preserve">
<style type="text/css">
	.st0{fill:#F4F4F4;}
	.st1{fill:none;stroke:#F4F4F4;stroke-width:6;stroke-miterlimit:10;}
</style>
<g>
	<g>
		<path class="st0" d="M79.1,272c3.1,1.2,7,1.5,11.9,1.5c3.2,0.1,18.7,0.1,22.6-0.1c-0.8,1.2-1.7,3.4-2,4.9H91.1
			c-10.7,0-17.2-1.6-21.2-8.3c-0.5,3.8-1.4,7-2.8,9.6c-0.8-0.6-2.9-1.8-4-2.3c3-5.3,3.4-13.7,3.5-23l4.5,0.3c-0.1,2.6-0.2,5-0.3,7.5
			c1,3.1,2.2,5.4,3.9,7v-18.1H64.5v-4.5h9.3v-5.8h-8.3v-4.3h8.3v-6h4.6v6h8v4.3h-8v5.8h9.1v1.9c4.2-2.5,6.4-6.3,7.3-11.7h-6.7v-4.2
			h23.4c0,0,0,1.2-0.1,1.8c-0.4,9.3-1,13.1-2.1,14.5c-0.9,1-1.9,1.4-3.3,1.6c-1.2,0.1-3.4,0.2-5.8,0.1c-0.1-1.3-0.6-3.1-1.3-4.2
			c2,0.2,4,0.2,4.7,0.2s1.2-0.1,1.6-0.5c0.6-0.8,1-3.1,1.3-9.1h-7c-1.1,7.4-4.2,12.2-9.5,15.5c-0.5-0.5-1.6-1.4-2.5-2.1v0.9h-8.4
			v6.8h7.8v4.3h-7.8V272z M89.7,253.1h20.6v16.6H89.7V253.1z M94.3,265.6h11v-8.4h-11V265.6z"/>
		<path class="st0" d="M146.1,250.4c3.6,11.2,10.4,20.2,20.5,24.5c-1.2,1.1-2.9,3.2-3.7,4.7c-10-4.7-16.5-13.4-20.7-24.7
			c-2.7,9.7-8.5,19-20.7,24.7c-0.8-1.3-2.4-3.1-3.8-4.2c12.8-5.6,18-15.2,20.1-24.9h-19v-5.2h20c0.6-5.4,0.6-10.5,0.6-14.8h5.4
			c-0.1,4.3-0.1,9.5-0.8,14.8h21.6v5.2H146.1z"/>
		<path class="st0" d="M199.4,248.2c-0.3,0.5-0.6,0.9-0.9,1.3c6,6.5,13.4,10.6,21.8,13.8c-1.2,1.1-2.5,2.7-3.2,4.1
			c-2.1-0.9-4.2-2-6.2-3v15.1h-5.1V278h-20.3v1.7h-4.9v-14.6c-2.1,1.1-4.3,2.2-6.5,3.1c-0.7-1.2-2-3-3.2-4
			c9.8-3.5,19.1-9.9,24.1-17.8L199.4,248.2z M178.2,245.5h-4.9v-10.4h20.2c-0.5-1.3-1.2-2.7-1.8-4l5.2-1.1c0.9,1.5,1.9,3.5,2.6,5.1
			h18.6v10.4h-5v-5.9h-34.8V245.5z M191.2,243.1c-3.4,4.7-8.9,9.1-13.7,11.9c-0.7-0.9-2.4-2.9-3.4-3.8c4.7-2.3,9.6-5.9,12.5-9.7
			L191.2,243.1z M205.8,273.6v-7.5h-20.3v7.5H205.8z M206.3,261.7c-3.8-2.4-7.1-5.2-10.4-8.7c-2.8,3.2-6.1,6.2-9.7,8.7H206.3z
			 M203.1,241.5c4.7,2.8,10.7,7.1,13.7,10.1l-3.6,3.2c-2.8-3-8.7-7.5-13.5-10.5L203.1,241.5z"/>
		<path class="st0" d="M273.6,274.5v3.8h-48.3v-3.8h21.6v-2.5h-17.1v-3.4h17.1v-2.4h-15.7v-13.5h36.8v13.5h-16.3v2.4h17.2v3.4h-17.2
			v2.5H273.6z M273.3,250.7h-47.9V247h47.9V250.7z M266.4,245.1h-34.3v-13h34.3V245.1z M235.9,258.2h10.9v-2.6h-10.9V258.2z
			 M246.9,263.4v-2.7h-10.9v2.7H246.9z M261.5,234.8h-24.5v2.5h24.5V234.8z M261.5,239.8h-24.5v2.6h24.5V239.8z M263,255.6h-11.3
			v2.6H263V255.6z M263,260.7h-11.3v2.7H263V260.7z"/>
	</g>
</g>
<path class="st1" d="M282.3,373.4H53.5C25.6,373.4,3,350.8,3,322.9V53.5C3,25.6,25.6,3,53.5,3h228.8c27.9,0,50.5,22.6,50.5,50.5
	v269.4C332.8,350.8,310.2,373.4,282.3,373.4z"/>
<g>
	<g>
		<path class="st0" d="M205.3,97.1h-72.8c-1.6,0-2.9-1.3-2.9-2.9c0-1.6,1.3-2.9,2.9-2.9h72.8c1.6,0,2.9,1.3,2.9,2.9
			C208.2,95.8,206.9,97.1,205.3,97.1L205.3,97.1z"/>
		<path class="st0" d="M169.2,207.4c-13,0-23.5-10.5-23.5-23.5V94.2h5.8V184c0,9.8,7.9,17.7,17.7,17.7s17.7-7.9,17.7-17.7V94.2h5.8
			V184C192.7,196.9,182.1,207.4,169.2,207.4z"/>
		<path class="st0" d="M168,115.5h-18.3c-1.6,0-2.9-1.3-2.9-2.9c0-1.6,1.3-2.9,2.9-2.9H168c1.6,0,2.9,1.3,2.9,2.9
			C170.9,114.2,169.6,115.5,168,115.5z M168,132.8h-18.3c-1.6,0-2.9-1.3-2.9-2.9s1.3-2.9,2.9-2.9H168c1.6,0,2.9,1.3,2.9,2.9
			S169.6,132.8,168,132.8z M168,150.1h-18.3c-1.6,0-2.9-1.3-2.9-2.9c0-1.6,1.3-2.9,2.9-2.9H168c1.6,0,2.9,1.3,2.9,2.9
			C170.9,148.8,169.6,150.1,168,150.1z M168,167.6h-18.3c-1.6,0-2.9-1.3-2.9-2.9c0-1.6,1.3-2.9,2.9-2.9H168c1.6,0,2.9,1.3,2.9,2.9
			C170.9,166.4,169.6,167.6,168,167.6z"/>
	</g>
</g>
</svg>
