<?xml version="1.0" encoding="utf-8"?>
<!-- Generator: Adobe Illustrator 23.0.1, SVG Export Plug-In . SVG Version: 6.00 Build 0)  -->
<svg version="1.1" id="图层_1" xmlns="http://www.w3.org/2000/svg" xmlns:xlink="http://www.w3.org/1999/xlink" x="0px" y="0px"
	 viewBox="0 0 335.8 376.4" style="enable-background:new 0 0 335.8 376.4;" xml:space="preserve">
<style type="text/css">
	.st0{fill:#F4F4F4;}
	.st1{fill:none;stroke:#F4F4F4;stroke-width:6;stroke-miterlimit:10;}
</style>
<g>
	<g>
		<path class="st0" d="M111.2,271v5H65.3v-5H111.2z M108.6,235.6v5H68.3v-5H108.6z M104.3,252.7v5.1H71.8v-5.1H104.3z"/>
		<path class="st0" d="M166.1,274v4h-47.9v-4h21.1v-3.8h-17.2v-3.9h17.2v-3.1h-15.5v-16.7h15.5v-2.7h-20.9v-4h20.9v-3.2
			c-5.4,0.3-10.8,0.5-15.8,0.6c-0.1-1.2-0.6-2.9-1-3.9c12.3-0.3,27.1-1.3,35.7-2.8l2.5,3.9c-4.6,0.8-10.4,1.4-16.4,1.8v3.5h21.4v4
			h-21.4v2.7h16.4v16.7h-16.4v3.1h18.3v3.9h-18.3v3.8H166.1z M128.7,253.3h10.6V250h-10.6V253.3z M139.4,259.8v-3.3h-10.6v3.3H139.4
			z M144.3,250v3.3h11.3V250H144.3z M155.6,256.5h-11.3v3.3h11.3V256.5z"/>
		<path class="st0" d="M188.1,232.1c-1.5,3.7-3.3,7.3-5.3,10.9v36.6h-4.7v-29.3c-1.6,2.2-3.3,4.2-5,6c-0.5-1.2-1.9-3.9-2.8-5
			c5.2-4.9,10.1-12.7,13.1-20.5L188.1,232.1z M208.2,260.7c3.3,5.2,8.4,10.1,13.3,12.9c-1.1,1-2.7,2.7-3.5,4c-4.5-3-9.1-8-12.4-13.4
			v15.5h-5v-15.2c-3.6,5.4-8.3,10.1-13.1,13c-0.8-1.2-2.3-3-3.4-4c5.2-2.6,10.4-7.5,13.9-12.8h-12.2v-4.5h14.8v-5.8h-11.1v-17.5
			h27.7v17.5h-11.7v5.8H220v4.5H208.2z M194.2,245.9h18.1v-8.6h-18.1V245.9z"/>
		<path class="st0" d="M243.4,257.7c-2,0.6-4.1,1.3-6.1,1.9v14.1c0,2.6-0.5,4-2,4.8c-1.6,0.9-3.8,1-7.3,1c-0.2-1.3-0.9-3.5-1.5-4.9
			c2.2,0.1,4.3,0.1,4.9,0.1c0.7,0,1-0.2,1-1V261l-6.6,1.9l-1.2-4.9c2.1-0.5,4.8-1.2,7.8-2v-10.5h-6.9v-4.8h6.9v-10.4h4.9v10.4h5.7
			v4.8h-5.7v9.1l5.5-1.6L243.4,257.7z M272.1,239.6v21.5h-4.9v-3.2h-16.1c-0.4,7.4-2.1,16-7.4,21.9c-0.8-1.1-2.9-3-4-3.6
			c5.8-6.4,6.4-15.7,6.4-22.7v-13.9h12.3c-0.9-2.1-2.7-5.1-4.4-7.2l4.5-1.8c2,2.4,4,5.4,4.8,7.5l-3.7,1.6H272.1z M267.2,253.2V244
			h-16v9.2H267.2z"/>
	</g>
</g>
<path class="st1" d="M282.3,373.4H53.5C25.6,373.4,3,350.8,3,322.9V53.5C3,25.6,25.6,3,53.5,3h228.8c27.9,0,50.5,22.6,50.5,50.5
	v269.4C332.8,350.8,310.2,373.4,282.3,373.4z"/>
<g>
	<path class="st0" d="M225.2,130.3c0.6,0,1-0.5,1-1v-6.1c0-0.6-0.5-1-1-1h-15.4v-12.3c0-2.3-1.8-4.1-4.1-4.1h-12.3V90.4
		c0-0.6-0.5-1-1-1h-6.1c-0.6,0-1,0.5-1,1v15.4H173V90.4c0-0.6-0.5-1-1-1h-6.1c-0.6,0-1,0.5-1,1v15.4h-12.3V90.4c0-0.6-0.5-1-1-1
		h-6.1c-0.6,0-1,0.5-1,1v15.4h-12.3c-2.3,0-4.1,1.8-4.1,4.1v12.3h-15.4c-0.6,0-1,0.5-1,1v6.1c0,0.6,0.5,1,1,1H128v12.3h-15.4
		c-0.6,0-1,0.5-1,1v6.1c0,0.6,0.5,1,1,1H128V163h-15.4c-0.6,0-1,0.5-1,1v6.1c0,0.6,0.5,1,1,1H128v12.3c0,2.3,1.8,4.1,4.1,4.1h12.3
		v15.4c0,0.6,0.5,1,1,1h6.1c0.6,0,1-0.5,1-1v-15.4h12.3v15.4c0,0.6,0.5,1,1,1h6.1c0.6,0,1-0.5,1-1v-15.4h12.3v15.4c0,0.6,0.5,1,1,1
		h6.1c0.6,0,1-0.5,1-1v-15.4h12.3c2.3,0,4.1-1.8,4.1-4.1v-12.3h15.4c0.6,0,1-0.5,1-1V164c0-0.6-0.5-1-1-1h-15.4v-12.3h15.4
		c0.6,0,1-0.5,1-1v-6.1c0-0.6-0.5-1-1-1h-15.4v-12.3H225.2z M201.7,178.4c0,0.6-0.5,1-1,1h-63.4c-0.6,0-1-0.5-1-1v-63.4
		c0-0.6,0.5-1,1-1h63.4c0.6,0,1,0.5,1,1V178.4z"/>
	<path class="st0" d="M189.4,128.1h-40.9c-0.6,0-1.1,0.5-1.1,1.1V170c0,0.6,0.5,1.1,1.1,1.1h40.9c0.6,0,1.1-0.5,1.1-1.1v-40.9
		C190.4,128.6,189.9,128.1,189.4,128.1z M181.8,162.5H156v-25.8h25.8V162.5z"/>
</g>
</svg>
