<?xml version="1.0" encoding="utf-8"?>
<!-- Generator: Adobe Illustrator 23.0.1, SVG Export Plug-In . SVG Version: 6.00 Build 0)  -->
<svg version="1.1" id="图层_1" xmlns="http://www.w3.org/2000/svg" xmlns:xlink="http://www.w3.org/1999/xlink" x="0px" y="0px"
	 viewBox="0 0 335.8 376.4" style="enable-background:new 0 0 335.8 376.4;" xml:space="preserve">
<style type="text/css">
	.st0{fill:#F4F4F4;}
	.st1{fill:none;stroke:#F4F4F4;stroke-width:6;stroke-miterlimit:10;}
</style>
<g>
	<g>
		<path class="st0" d="M64.6,269c1,0.6,2,1.4,3.5,2.4c3.5,2.1,8.2,2.4,14.2,2.4s14.2-0.4,19.5-1.1c-0.6,1.4-1.4,3.8-1.5,5.2
			c-3.7,0.3-12.9,0.6-18.2,0.6c-6.6,0-11.1-0.6-14.9-2.8c-2.3-1.4-4-3.1-5.3-3.1c-1.7,0-4.2,3.3-6.5,6.7l-3.3-4.6
			c2.6-2.8,5.3-5,7.6-6v-14.3h-6.8v-4.6h11.7V269z M62.3,243.2c-1.6-2.4-5.2-6.3-8.2-9l3.6-2.8c2.9,2.6,6.6,6.2,8.3,8.6L62.3,243.2z
			 M79.8,258c-0.9,5-3,9.9-7.4,13.4c-0.7-1-2.6-2.9-3.7-3.6c3.5-2.7,5.3-6.2,6.1-9.8H68v-4.8h7.4c0.1-1.2,0.1-2.4,0.1-3.6v-5h-7.1
			v-4.8h7.1v-8.2h4.9v8.2h7.6v-8.2H93v8.2h6.5v4.8H93v8.6h7.6v4.8H93v12.9h-4.9V258H79.8z M80.5,249.7c0,1.1-0.1,2.3-0.1,3.5h7.7
			v-8.6h-7.6V249.7z"/>
		<path class="st0" d="M149.3,235.8v42.5h-5.4V274h-30v4.5h-5.2v-42.7H149.3z M143.9,268.9v-28.1h-30v28.1H143.9z"/>
		<path class="st0" d="M157.7,235.9h12c8.8,0,15.1,3,15.1,11.9c0,8.6-6.3,12.6-14.9,12.6h-6v15h-6.2V235.9z M169.3,255.5
			c6.3,0,9.3-2.4,9.3-7.6s-3.3-6.9-9.5-6.9h-5.2v14.5H169.3z"/>
		<path class="st0" d="M188.7,255.8c0-12.9,7.8-20.6,17.8-20.6c4.9,0,8.8,2.4,11.2,5l-3.4,4c-2-2.1-4.5-3.5-7.7-3.5
			c-6.8,0-11.5,5.7-11.5,15c0,9.4,4.4,15.1,11.4,15.1c3.6,0,6.4-1.6,8.7-4.2l3.3,3.9c-3.2,3.6-7.2,5.7-12.3,5.7
			C196.3,276.1,188.7,268.7,188.7,255.8z"/>
		<path class="st0" d="M231.9,241.1h-11.6v-5.2h29.5v5.2h-11.6v34.3h-6.2V241.1z"/>
		<path class="st0" d="M252.8,255.8c0-12.9,7.9-20.6,18.4-20.6c5.6,0,9.3,2.5,11.7,5l-3.4,4c-1.9-2-4.3-3.5-8.2-3.5
			c-7.4,0-12.2,5.7-12.2,15c0,9.4,4.3,15.1,12.5,15.1c2.4,0,4.8-0.7,6.2-1.9v-9.3h-7.8v-5.1h13.5v17.1c-2.6,2.6-7.1,4.6-12.5,4.6
			C260.5,276.1,252.8,268.7,252.8,255.8z"/>
	</g>
</g>
<path class="st1" d="M282.3,373.4H53.5C25.6,373.4,3,350.8,3,322.9V53.5C3,25.6,25.6,3,53.5,3h228.8c27.9,0,50.5,22.6,50.5,50.5
	v269.4C332.8,350.8,310.2,373.4,282.3,373.4z"/>
<g>
	<path class="st0" d="M166.2,108.4c-1.5-0.7-3.3-0.7-4.9,0l-41,19.5c-0.1,0.1-0.2,0.2-0.1,0.4c0,0.1,0.1,0.1,0.1,0.1l41,19.5
		c1.5,0.7,3.3,0.7,4.9,0l41-19.5c0.1-0.1,0.2-0.2,0.1-0.4c0-0.1-0.1-0.1-0.1-0.1L166.2,108.4L166.2,108.4z M170.6,99.2l41,19.5
		c5.2,2.5,7.4,8.7,4.9,14c-1,2.2-2.8,3.9-4.9,4.9l-41,19.5c-4.3,2.1-9.3,2.1-13.6,0l-41-19.5c-5.2-2.5-7.4-8.7-5-13.9
		c1-2.2,2.8-3.9,5-5l41-19.5C161.3,97.2,166.3,97.2,170.6,99.2L170.6,99.2z M210.8,149c2.5-1.2,5.6-0.1,6.8,2.4
		c1.2,2.5,0.1,5.6-2.4,6.8l-44.6,21.2c-4.3,2.1-9.3,2.1-13.6,0l-44-21.2c-2.5-1.2-3.6-4.3-2.4-6.8c1.2-2.5,4.3-3.6,6.8-2.4l0,0
		l44,21.2c1.5,0.7,3.3,0.7,4.9,0L210.8,149L210.8,149z M210.8,169.4c2.5-1.2,5.6-0.1,6.8,2.4c1.2,2.5,0.1,5.6-2.4,6.8l0,0
		l-44.6,21.2c-4.3,2.1-9.3,2.1-13.6,0l-44-21.2c-2.5-1.2-3.6-4.3-2.4-6.8c1.2-2.5,4.3-3.6,6.8-2.4l0,0l44,21.2
		c1.5,0.7,3.3,0.7,4.9,0L210.8,169.4L210.8,169.4z"/>
</g>
</svg>
