<?xml version="1.0" encoding="utf-8"?>
<!-- Generator: Adobe Illustrator 23.0.1, SVG Export Plug-In . SVG Version: 6.00 Build 0)  -->
<svg version="1.1" id="图层_1" xmlns="http://www.w3.org/2000/svg" xmlns:xlink="http://www.w3.org/1999/xlink" x="0px" y="0px"
	 viewBox="0 0 335.8 376.4" style="enable-background:new 0 0 335.8 376.4;" xml:space="preserve">
<style type="text/css">
	.st0{fill:#F4F4F4;}
	.st1{fill:none;stroke:#F4F4F4;stroke-width:6;stroke-miterlimit:10;}
</style>
<path class="st0" d="M126.4,125.4l14.7-14.7c1.2-1.2,1.2-2.9,0-4.1c-1.2-1.2-2.9-1.2-4.1,0l-14.7,14.7l-7.3-7.3l14.7-14.7
	c1.2-1.2,1.2-2.9,0-4.1c-1.2-1.2-2.9-1.2-4.1,0l-14.7,14.7l-6.2-6.2c-2.4-2.4-2.4-5.9,0-8.2l18.8-18.8c2.4-2.4,5.9-2.4,8.2,0
	l32.3,32.3l-27,27L126.4,125.4z M106.4,204c-1.5,0-2.6-1.2-2.6-2.6c1.8-11.1,4.1-24.1,5.9-29.1l25.8,25.8
	C130.5,199.9,117.8,202.3,106.4,204L106.4,204z M113.2,167.7l76.3-76.3l27,27l-76.3,76.3L113.2,167.7z M231.1,184.7l-18.8,18.8
	c-2.4,2.4-5.9,2.4-8.2,0l-8.2-8.2l14.7-14.7c1.2-1.2,1.2-2.9,0-4.1c-1.2-1.2-2.9-1.2-4.1,0l-14.7,14.7l-9.1-9.1l14.7-14.7
	c1.2-1.2,1.2-2.9,0-4.1c-1.2-1.2-2.9-1.2-4.1,0l-14.7,14.7l-6.5-6.5l27-27l32.3,32.3C233.5,178.8,233.5,182.3,231.1,184.7z
	 M203.3,78.1c2.4-2.4,6.2-2.4,8.2,0l18.8,18.8c2.4,2.4,2.4,6.2,0,8.2l-9.4,9.4l-27-27.3L203.3,78.1z"/>
<g>
	<g>
		<path class="st0" d="M71,240.6c-1.7,2.7-3.5,5.2-5.5,7c-0.4-1-1.5-3.4-2.3-4.5c3.3-3.2,6.2-7.8,7.8-12.6l4.1,1.3
			c-0.5,1.4-1.1,2.8-1.8,4.2h7.8v4.5H71z M81.3,267.4c0.2,1.3,0.8,3.3,1.2,4.2c-9.1,5.7-10.6,6.7-11.5,7.7c-0.4-0.9-1.7-2.6-2.5-3.3
			c1.1-0.8,3-2.7,3-5.5v-9.5h-6.6v-4.5h6.6v-6.4h-4v-4.5H80v4.5h-4.1v6.4h5.6v4.5h-5.6v9.4L81.3,267.4z M102.4,244.3
			c2.8,2.8,6.9,5.6,10.5,7c-1,0.8-2.4,2.5-3.1,3.5c-3.3-1.7-7-4.6-9.9-7.8v7.8h-4.5v-8.6c-3.1,3.6-7.3,7.1-11,9.1
			c-0.7-1-2.1-2.6-3.1-3.4c3.6-1.6,7.8-4.6,10.6-7.6h-9.1v-4h5.6c-0.8-1.9-2.4-4.8-3.6-7l3.7-1.6c1.3,2.2,3.1,5.3,3.9,7l-3.2,1.5
			h6.1v-9.5h4.5v9.5h5.9l-3-1.3c1.3-2,3-5.3,3.9-7.5l4.3,1.7c-1.6,2.5-3.2,5.3-4.5,7.1h5.4v4H102.4z M98.3,255.5
			c-0.5,1.2-1,2.3-1.6,3.5h15.4v4h-4.7c-0.9,3.5-2.4,6.3-4.4,8.6c3.5,1.5,6.5,3,8.9,4.3l-3.1,3.6c-2.5-1.5-5.8-3.1-9.4-4.8
			c-3.6,2.3-8.4,3.8-14.8,4.9c-0.3-1.3-1.1-3-1.9-3.9c5-0.6,9-1.6,11.9-3.1c-2.9-1.2-6-2.5-9.1-3.5c1.2-1.7,2.6-3.8,3.9-6h-6.9v-4
			h9.2c0.8-1.5,1.4-3,2-4.5L98.3,255.5z M94.5,263.1c-0.8,1.4-1.7,2.9-2.5,4.1c2.3,0.9,4.5,1.8,6.7,2.6c1.8-1.7,3.1-4,4-6.7H94.5z"
			/>
		<path class="st0" d="M165,236.7V248h-5.2v-6.7h-35.6v7.8h-4.9v-12.4h20.5c-0.7-1.7-1.6-3.6-2.3-5.2l5.3-1.4c1,2,2.3,4.7,3.1,6.7
			H165z M144.6,273.3h20.3v4.5h-45.4v-4.5h19.8v-12.1h-13.8v-4.5h33.6v4.5h-14.5V273.3z M139.2,247c-4.4,3.8-10.6,7.7-16.6,10.3
			l-2.8-4.5c6-2.1,11.7-5.4,16-8.9L139.2,247z M161.2,256.7c-3.5-2.5-10.9-6.6-16.3-9.3l3.1-3.4c5.2,2.5,12.7,6.3,16.5,8.7
			L161.2,256.7z"/>
		<path class="st0" d="M214.9,253.4c-2.1,6.8-5.7,12-10.2,16c4.5,2.7,9.8,4.7,16,5.8c-1.1,1.1-2.5,3.2-3.2,4.5
			c-6.7-1.4-12.2-3.8-16.9-7.1c-4.8,3.3-10.2,5.5-16.1,7.1c-0.5-1.3-1.7-3.2-2.7-4.3c5.3-1.2,10.4-3.2,14.7-6.1c-2.7-2.6-5-5.6-7-9
			c-3.7,6.1-8.6,11.2-15.3,15.1c-0.7-1.1-2.5-3-3.7-4c9.6-5.5,15.5-13.8,18.9-24.6h-7.2c-3.1,0-5.1,0.4-5.6,1
			c-0.3-1.1-1.1-3.4-1.7-4.6c0.8-0.2,1.4-1,2.1-2.1c0.6-1.1,2.7-5.3,3.6-9.4l5.3,0.9c-0.9,3.3-2.4,6.7-3.8,9.5h8.6
			c0.9-3.8,1.6-7.8,2.1-12l5.5,0.9c-0.5,3.9-1.1,7.6-1.9,11.1H219l-0.1,4.8h-23.6c-0.5,1.7-1.1,3.5-1.8,5.1h17l1-0.2L214.9,253.4z
			 M192.7,256.9c2,3.7,4.6,6.9,7.8,9.5c3.1-2.6,5.6-5.8,7.5-9.5H192.7z M211.4,241c-1.4-2-4.3-5.4-6.5-7.8l3.9-2.3
			c2.2,2.3,5.2,5.5,6.7,7.5L211.4,241z"/>
		<path class="st0" d="M266.9,273.9c1.5,0,1.8-0.7,2-4.8c1.1,0.8,3.2,1.6,4.6,1.9c-0.6,6-1.9,7.6-6.2,7.6h-7.6
			c-5.4,0-6.7-1.5-6.7-6.7v-17.2h-7.8c-1,11.7-3.6,20.4-17,25.2c-0.6-1.3-1.9-3.3-3.1-4.3c12.1-3.9,14.1-11.1,14.9-20.9h-14v-4.8
			h20.7v-19.6h5.2v19.6h20.6v4.8h-14.4v17.2c0,1.8,0.3,2,2.3,2H266.9z M237.4,247.3c-1.4-3-4.8-7.8-7.7-11.3l4-2.3c3,3.4,6.4,8,8,11
			L237.4,247.3z M270,235.8c-2.6,4.1-6,8.5-8.5,11.4l-4.3-1.8c2.6-3,5.8-7.8,7.6-11.5L270,235.8z"/>
	</g>
</g>
<path class="st1" d="M282.3,373.4H53.5C25.6,373.4,3,350.8,3,322.9V53.5C3,25.6,25.6,3,53.5,3h228.8c27.9,0,50.5,22.6,50.5,50.5
	v269.4C332.8,350.8,310.2,373.4,282.3,373.4z"/>
</svg>
