<?xml version="1.0" encoding="utf-8"?>
<!-- Generator: Adobe Illustrator 23.0.1, SVG Export Plug-In . SVG Version: 6.00 Build 0)  -->
<svg version="1.1" id="图层_1" xmlns="http://www.w3.org/2000/svg" xmlns:xlink="http://www.w3.org/1999/xlink" x="0px" y="0px"
	 viewBox="0 0 335.8 376.4" style="enable-background:new 0 0 335.8 376.4;" xml:space="preserve">
<style type="text/css">
	.st0{fill:#F4F4F4;}
	.st1{fill:none;stroke:#F4F4F4;stroke-width:6;stroke-miterlimit:10;}
</style>
<g>
	<g>
		<path class="st0" d="M79.1,272c3.1,1.2,7,1.5,11.9,1.5c3.2,0.1,18.7,0.1,22.6-0.1c-0.8,1.2-1.7,3.4-2,4.9H91.1
			c-10.7,0-17.2-1.6-21.2-8.3c-0.5,3.8-1.4,7-2.8,9.6c-0.8-0.6-2.9-1.8-4-2.3c3-5.3,3.4-13.7,3.5-23l4.5,0.3c-0.1,2.6-0.2,5-0.3,7.5
			c1,3.1,2.2,5.4,3.9,7v-18.1H64.5v-4.5h9.3v-5.8h-8.3v-4.3h8.3v-6h4.6v6h8v4.3h-8v5.8h9.1v1.9c4.2-2.5,6.4-6.3,7.3-11.7h-6.7v-4.2
			h23.4c0,0,0,1.2-0.1,1.8c-0.4,9.3-1,13.1-2.1,14.5c-0.9,1-1.9,1.4-3.3,1.6c-1.2,0.1-3.4,0.2-5.8,0.1c-0.1-1.3-0.6-3.1-1.3-4.2
			c2,0.2,4,0.2,4.7,0.2s1.2-0.1,1.6-0.5c0.6-0.8,1-3.1,1.3-9.1h-7c-1.1,7.4-4.2,12.2-9.5,15.5c-0.5-0.5-1.6-1.4-2.5-2.1v0.9h-8.4
			v6.8h7.8v4.3h-7.8V272z M89.7,253.1h20.6v16.6H89.7V253.1z M94.3,265.6h11v-8.4h-11V265.6z"/>
		<path class="st0" d="M146.1,255.8c3.9,8.5,10.9,14.8,20.9,17.5c-1.2,1.1-2.7,3.2-3.4,4.7c-11.1-3.6-18.3-11.3-22.5-22.2h-7.7V272
			l12.2-2.8c0,1.4,0.2,3.6,0.5,4.7c-14.5,3.8-16.8,4.5-18.2,5.4c-0.3-1.2-1.2-3.4-1.9-4.3c1-0.5,2.3-1.4,2.3-3.6v-15.5h-9.7v-4.9
			h9.7v-20.2h5.2v20.2h32.5v4.9H146.1z M161,233.7c-5.3,5.9-13.3,11.3-20.4,14.6c-0.9-1.1-2.8-3.1-4.1-4c7.3-2.9,15-7.7,19.4-12.9
			L161,233.7z"/>
		<path class="st0" d="M187.9,256.9c-0.1,1.3,0.1,3.2,0.2,4.1c-12.3,3.4-14.1,4-15.3,4.8c-0.2-0.9-0.9-3-1.4-4.1
			c1.1-0.3,2.3-1.6,3.9-3.5c0.9-1,2.6-3.5,4.6-6.5c-5.5,0.6-6.7,0.9-7.5,1.3c-0.2-1-0.9-3.1-1.4-4.3c1-0.3,1.9-1.5,3.1-3.3
			c1.1-1.7,4.9-8.6,6.9-14.9l4.3,2c-2.1,5.4-5.2,10.9-8.2,15.4l5.5-0.5c1.1-1.9,2.1-3.9,3-5.9l3.8,2.4c-2.8,5.2-6.1,10.5-9.6,15
			L187.9,256.9z M188.6,270c-5.6,2.3-11.6,4.6-16.2,6.4l-1.1-4.6c4.1-1.3,10.4-3.6,16.5-5.8L188.6,270z M206.1,265.8
			c-1.9,5.1-6.2,10.2-14.9,14c-0.6-1.1-2-2.8-3-3.7c6.9-2.9,10.7-6.5,12.7-10.3h-11.6v-4.3h13.1c0.5-2.1,0.6-4.1,0.6-6.1v-6h4.6v6.1
			c0,1.9-0.1,3.9-0.5,5.9H219v4.3H206.1z M197,261.3c-1.4-1.5-4.3-3.7-6.8-5l2.3-2.5c2.4,1.2,5.3,3.3,6.8,4.7L197,261.3z
			 M211.8,253.6c0.6-1.6,1.4-3.8,2-6h-23.3v-4.2h11.3v-4.2h-9.3V235h9.3v-4.6h4.9v4.6h9.8v4.2h-9.8v4.2h8.7l0.8-0.2l3.2,0.8
			c-1.1,3.7-2.4,7.9-3.6,10.6L211.8,253.6z M200.6,256.2c-1.4-1.4-4.2-3.4-6.4-4.7l2.1-2.5c2.3,1.2,5.2,3.1,6.5,4.5L200.6,256.2z
			 M208.7,267.2c4,2.7,9.1,6.7,11.5,9.4l-3.2,3.1c-2.3-2.8-7.2-7-11.3-9.8L208.7,267.2z"/>
		<path class="st0" d="M245.1,274.3c0,2.2-0.4,3.5-1.8,4.2c-1.4,0.8-3.4,0.9-6.7,0.9c-0.1-1.2-0.7-3.2-1.3-4.2c2,0.1,4,0.1,4.6,0
			c0.6,0,0.9-0.2,0.9-0.9v-16.9h-8.1c-0.1,7.3-0.7,16.7-4.5,22.8c-0.9-0.8-2.7-2-3.9-2.5c3.5-5.6,4-13.8,4-20.3h-3.6v-4h3.6v-16.6
			h4.8c0.6-2.1,1.1-4.7,1.4-6.6l5,0.9c-0.6,1.9-1.4,4-2.1,5.7h7.6V274.3z M240.8,253.3v-12.6h-8.1v12.6H240.8z M236.7,268.3
			c-0.6-2.1-2.2-5.6-3.5-8.1l3.1-1.3c1.3,2.6,3,5.8,3.7,7.9L236.7,268.3z M236.5,242.7c1.1,2.4,2.5,5.5,3,7.4l-3.2,1.4
			c-0.6-2.1-1.9-5.2-3-7.6L236.5,242.7z M269.8,275c0.3,0,0.7-0.1,0.9-0.3s0.3-0.7,0.4-1.5c0.1-1,0.2-3.1,0.2-5.7
			c0.9,0.7,2.1,1.4,3.3,1.8c-0.1,2.5-0.3,5.6-0.5,6.8c-0.3,1.1-0.8,1.9-1.4,2.4c-0.7,0.5-1.7,0.8-2.7,0.8h-2.4
			c-1.1,0-2.3-0.4-3.1-1.1c-0.9-0.9-1.1-1.9-1.1-5.6v-19.8h-8v7c0,6.3-0.9,14.9-6.3,20.3c-0.8-0.9-2.8-2.2-3.9-2.7
			c5-5,5.6-12.1,5.6-17.7v-11.3h17.2v24.3c0,1.2,0.1,2,0.2,2.2s0.4,0.3,0.7,0.3H269.8z M273.5,243.4h-27.1V239h11.3
			c-0.8-2.1-2-5.4-3.3-7.8l4.8-1.4c1.3,2.5,2.7,5.7,3.5,7.9l-3.9,1.3h14.7V243.4z"/>
	</g>
</g>
<path class="st1" d="M282.3,373.4H53.5C25.6,373.4,3,350.8,3,322.9V53.5C3,25.6,25.6,3,53.5,3h228.8c27.9,0,50.5,22.6,50.5,50.5
	v269.4C332.8,350.8,310.2,373.4,282.3,373.4z"/>
<g>
	<g>
		<path class="st0" d="M221.6,195.3c-34.8,0-69.3,0-104,0c-0.5,0-1-0.3-1.8-0.3c-7.5-1.5-13.8-8.3-13.5-17.8c0-4,0-4.3-4-4
			c-3.3,0-5.5-1-6.8-4c0-12.3,0-24.5,0-36.8c1.3-3,3.8-4.3,6.8-4c1,0,1.8,0,2.8,0s1.5-0.5,1.5-1.5c0-1.3,0-2.8,0-4
			c0-4.3,1.5-8.2,4.5-11.5c2.8-3.2,6.5-4.8,10.5-5.5c34.8,0,69.3,0,104,0c8,1.5,13,6.3,14.8,14c0,20.3,0,40.8,0,61
			c-0.8,3-1.8,6-4,8.3C229.6,192.8,225.8,194.5,221.6,195.3z M169.6,184c16.5,0,32.8,0,49.3,0c4.3,0,6.3-2,6.3-6c0-18,0-36.3,0-54.3
			c0-4-2-6-6-6c-33,0-65.8,0-98.8,0c-3.8,0-6,2.3-6,6c0,4.8,0,9.5,0,14.5c0,1.5-0.5,2-2,1.8c-2.5,0-5,0-7.5,0
			c-1.3,0-1.5,0.5-1.5,1.5c0,6.3,0,12.5,0,18.8c0,1.3,0.5,1.5,1.5,1.5c2.5,0,5,0,7.5,0c1.5,0,2,0.5,2,1.8c0,4.5,0,9.3,0,13.8
			c0,4.5,2,6.8,6.5,6.8C137.1,184,153.3,184,169.6,184z"/>
		<path class="st0" d="M169.6,178.8c-14,0-28.3,0-42.3,0c-0.5,0-1.3,0-1.8,0c-3.8,0-6.3-2.5-6.3-6.3c0-7.5,0-14.8,0-22.3
			c0-6.8,0-13.8,0-20.5c0-4.5,2.3-6.8,6.8-6.8c29,0,58,0,87,0c4.5,0,6.8,2.3,6.8,6.8c0,14.3,0,28.5,0,42.8c0,4.5-2.3,6.8-6.8,6.8
			C198.6,178.8,184.1,178.8,169.6,178.8z"/>
	</g>
</g>
</svg>
