<?xml version="1.0" encoding="utf-8"?>
<!-- Generator: Adobe Illustrator 23.0.1, SVG Export Plug-In . SVG Version: 6.00 Build 0)  -->
<svg version="1.1" id="图层_1" xmlns="http://www.w3.org/2000/svg" xmlns:xlink="http://www.w3.org/1999/xlink" x="0px" y="0px"
	 viewBox="0 0 335.8 376.4" style="enable-background:new 0 0 335.8 376.4;" xml:space="preserve">
<style type="text/css">
	.st0{fill:#F4F4F4;}
	.st1{fill:none;stroke:#F4F4F4;stroke-width:6;stroke-miterlimit:10;}
</style>
<g>
	<g>
		<path class="st0" d="M72.6,263.9c-1.3,3.6-3.4,7.5-5.5,9.9c-0.8-0.7-2.4-1.8-3.3-2.4c2-2.2,3.8-5.4,4.8-8.6L72.6,263.9z
			 M79.2,261.2v12.7c0,2.1-0.4,3.3-1.7,4c-1.4,0.7-3.3,0.8-6.1,0.8c-0.2-1.2-0.8-3-1.3-4.2c1.7,0.1,3.3,0.1,3.9,0.1
			c0.6,0,0.7-0.2,0.7-0.7v-12.7H64.5v-4.2h10.2V252H64.1v-4.2H70c-0.3-1.9-1-4.6-1.9-6.7l4-1c1,2.1,1.9,5,2.1,6.9l-3,0.8h7.4
			c1-2.3,2-5.5,2.6-7.8l4.6,1c-0.9,2.4-1.9,4.8-2.7,6.8h6.3v4.2H79.2v4.9h9.5v4.2H79.2z M88.6,240H65v-4.1h9.8
			c-0.6-1.5-1.3-3.2-1.9-4.6l4.4-1.1c0.9,1.7,2,4,2.6,5.7h8.7V240z M84.2,262.6c1.8,2.5,3.6,5.8,4.5,8l-3.5,2.1
			c-0.9-2.3-2.7-5.8-4.3-8.4L84.2,262.6z M113,252.8h-5.4v26.6h-4.9v-26.6h-6.9v1.1c0,7.7-0.7,18.3-5.5,25.1c-0.8-0.9-2.8-2.4-3.8-3
			c4.2-6.3,4.6-15.2,4.6-22.2v-18.4c6-1,12.6-2.7,16.4-4.3l4,3.6c-4.5,1.7-10.2,3-15.7,4v9.4H113V252.8z"/>
		<path class="st0" d="M166.1,273.2v4.6h-48v-4.6h21.6v-5.7h-16.1V263h16.1v-4.2h-4v-10.9h-6c-0.8,4.5-2.8,9.1-8.2,12.2
			c-0.6-0.9-2.4-2.8-3.3-3.5c4.3-2.5,6.1-5.6,6.8-8.7h-6.1v-4.5h6.5v-6.5h-4.7v-4.4h24v4.4h-4.4v6.5h5.6v4.5h-5.6v9.9h4.5v5.2h15.8
			v4.6h-15.8v5.7H166.1z M135.7,243.4v-6.5H130v6.5H135.7z M153.3,251.4h-4.6v-17.9h4.6V251.4z M163.3,254.2c0,2.5-0.5,3.8-2.3,4.5
			c-1.7,0.7-4.3,0.8-8.2,0.8c-0.2-1.3-0.9-3.3-1.5-4.5c2.7,0.1,5.4,0.1,6.1,0.1c0.9,0,1.1-0.2,1.1-0.9v-23.2h4.7V254.2z"/>
		<path class="st0" d="M187.4,247.2c-4.9,1.8-10.1,3.7-14.3,5.2l-1.5-4.5c3.8-1.1,9.4-3,15-4.9L187.4,247.2z M213.7,274.8
			c1.8,0,2.2-1.7,2.3-6.1c1.1,1,2.8,1.6,4.1,1.9c-0.5,5.4-1.2,8.1-6.4,8.1h-4.5c-4.1,0-5.8-1.1-5.7-5.2l0.4-8.3h-17.3
			c-1,3.3-1.9,6.7-2.7,9.2l14-1c-0.3,1.2-0.5,3-0.6,3.9c-16.8,1.3-19.1,1.6-20.5,2.2c-0.4-1.3-1.5-3.7-2.1-4.9
			c1.6-0.3,3.7-0.8,4.3-2.1c0.9-1.6,3.2-9.9,4.4-14.3h-10.8v-4.1h46.3v4.1h-30.3l-1,3.3h21.5l-0.6,11.4c0,1.4,0.4,1.8,1.7,1.8H213.7
			z M184.2,241.2c-2.3-1.8-6.9-4.2-10.6-5.6l2.4-3.4c3.6,1.2,8.3,3.4,10.7,5.1L184.2,241.2z M195.1,238.6c-1.4,2.2-3.3,4.3-5.6,6.2
			c-0.7-1.1-2.4-2.5-3.4-3.1c4.2-3.2,6.9-7.6,8.3-11.3l4.7,0.6c-0.5,1.2-1,2.4-1.6,3.6h17l0.8-0.2l3.5,0.9c-1.2,3-2.8,6.4-4,8.6
			l-4.3-1.2c0.6-1.1,1.3-2.7,2-4.2h-7.1c-0.2,1-0.4,1.8-0.7,2.7c2.4,4.7,7.3,7.3,15.3,8.1c-1,0.9-2.1,2.8-2.7,4
			c-7-1.1-11.6-3.7-14.6-8c-2.5,3.9-6.9,6.7-14.6,8.5c-0.4-1.1-1.6-3.1-2.6-4c10.4-2.1,13.6-5.8,14.9-11.3H195.1z M191.4,265.3
			c3.1,1.3,7,3.4,9.1,5l-2.5,3c-1.9-1.6-5.8-3.9-9-5.3L191.4,265.3z"/>
		<path class="st0" d="M224.6,271.8c2.7-4.1,4.7-10.3,5.8-15.7l4.7,1.4c-1.2,5.5-3.1,12.3-5.8,16.8L224.6,271.8z M237.5,247.4v-5.5
			h-11.3v-4.8h11.3v-6.7h4.9v6.7h13.9v-6.7h4.9v6.7h11.5v4.8h-11.5v5.5h-4.9v-5.5h-13.9v5.5H237.5z M255.7,273.8
			c2.7,0,3.2-1.1,3.5-7.7c1.1,0.9,3.3,1.6,4.6,2c-0.7,8.4-2.1,10.6-7.8,10.6H246c-6.3,0-8-1.6-8-7.1v-17.4h5v17.3
			c0,2,0.5,2.3,3.4,2.3H255.7z M249.7,245.8c3,4.3,6.2,10,7.5,13.7l-4.7,2.4c-1.1-3.7-4.1-9.6-7-14.1L249.7,245.8z M267.8,255.7
			c2.6,5.3,5.2,12.1,5.8,16.4l-5.1,1.6c-0.6-4.3-3-11.3-5.5-16.7L267.8,255.7z"/>
	</g>
</g>
<path class="st1" d="M282.3,373.4H53.5C25.6,373.4,3,350.8,3,322.9V53.5C3,25.6,25.6,3,53.5,3h228.8c27.9,0,50.5,22.6,50.5,50.5
	v269.4C332.8,350.8,310.2,373.4,282.3,373.4z"/>
<path class="st0" d="M125.7,202.2c-15.9,0-28.9-13-28.9-28.9c0-15.9,13-28.9,28.9-28.9s28.9,13,28.9,28.9S141.6,202.2,125.7,202.2z
	 M130.4,114c-12.2,0-22.2-9.9-22.2-22.2c0-12.2,9.9-22.2,22.2-22.2c12.2,0,22.2,9.9,22.2,22.2C152.6,104.1,142.6,114,130.4,114z
	 M206.3,186.2c-11.3,0-20.5-9.2-20.5-20.5c0-11.3,9.2-20.5,20.5-20.5c11.3,0,20.5,9.2,20.5,20.5
	C226.8,177.1,217.6,186.2,206.3,186.2z M167.7,151.3c-11.5,0-21-9.4-21-21s9.4-21,21-21s21,9.4,21,21
	C188.6,141.9,179.2,151.3,167.7,151.3z M202.2,114.2c-9.5,0-17.2-7.8-17.2-17.2s7.8-17.2,17.2-17.2s17.2,7.8,17.2,17.2
	S211.8,114.2,202.2,114.2z"/>
</svg>
