<?xml version="1.0" encoding="utf-8"?>
<!-- Generator: Adobe Illustrator 23.0.1, SVG Export Plug-In . SVG Version: 6.00 Build 0)  -->
<svg version="1.1" id="图层_1" xmlns="http://www.w3.org/2000/svg" xmlns:xlink="http://www.w3.org/1999/xlink" x="0px" y="0px"
	 viewBox="0 0 335.8 376.4" style="enable-background:new 0 0 335.8 376.4;" xml:space="preserve">
<style type="text/css">
	.st0{fill:#F4F4F4;}
	.st1{fill:none;stroke:#F4F4F4;stroke-width:6;stroke-miterlimit:10;}
</style>
<g>
	<g>
		<path class="st0" d="M84.9,256.3c-1.6-1.3-5-3.8-7.6-5.6c-1.9,2.9-5,5.7-10.3,8.1c-0.6-1-2-2.5-3.2-3.3c6.2-2.4,9-5.5,10.2-8.5
			h-9.7v-4H68c-1-0.6-2.8-1.8-3.8-2.3c2.7-2.7,4.8-6.6,5.9-10.6l4.5,0.9c-0.4,1.2-0.8,2.4-1.2,3.5h13.9v4h-7.4v2.8
			c0,0.5,0,1.1-0.1,1.6h8.8v4H79l-0.2,0.5c2.2,1.1,8.1,4.6,9.5,5.6L84.9,256.3z M75,243c0.1-0.6,0.1-1.1,0.1-1.7v-2.7h-3.8
			c-0.9,1.7-2,3.2-3.1,4.4H75z M71.8,257.5h33.6v22h-5.1v-1.8H76.8v1.9h-4.9V257.5z M76.8,261.5v4.2h23.6v-4.2H76.8z M100.4,273.7
			v-4.3H76.8v4.3H100.4z M110,234.6v19.2H90.6v-19.2H110z M105,239h-9.8v10.4h9.8V239z"/>
		<path class="st0" d="M136.1,233.6c2.6,3.6,5.4,8.4,6.5,11.6l-4.5,1.9c-0.3-0.9-0.6-1.8-1.1-2.8c-13.8,1.1-15.7,1.3-17,1.9
			c-0.3-1-1-3.4-1.7-4.7c0.9-0.2,1.7-1,2.5-2.1c0.9-1.1,3.6-5.1,5.3-9.2l5.2,1.5c-1.7,3.3-4,6.8-6.2,9.5l10-0.6
			c-1-1.9-2.1-3.7-3.3-5.4L136.1,233.6z M140.1,274.3c0,2.4-0.5,3.6-2,4.4c-1.7,0.8-4,0.9-7.3,0.9c-0.3-1.3-1-3.3-1.7-4.5
			c2.3,0.1,4.5,0.1,5.2,0.1c0.7,0,0.9-0.2,0.9-0.9v-5.1h-9.9v10.5h-4.7v-30.2h19.5V274.3z M125.3,253.6v3.8h9.9v-3.8H125.3z
			 M135.2,265.3v-4h-9.9v4H135.2z M151.6,253.9c-5.6,0-6.9-1.4-6.9-6.4v-17h4.9v8.4c4.2-1.4,8.4-3.3,11.3-4.8l3.2,3.6
			c-4.1,2-9.5,3.8-14.5,5.2v4.5c0,1.7,0.4,2,2.6,2h7.3c1.9,0,2.3-0.9,2.5-5.8c1,0.8,3.1,1.6,4.4,1.9c-0.6,6.6-1.9,8.4-6.4,8.4H151.6
			z M159.9,274.9c2,0,2.4-1,2.7-6.8c1.1,0.8,3.1,1.6,4.4,1.9c-0.6,7.3-1.9,9.2-6.7,9.2h-8.5c-5.6,0-7.1-1.4-7.1-6.4v-17.5h4.9v8
			c4.4-1.6,8.9-3.5,11.7-5.4l3.3,3.7c-4.1,2.4-9.8,4.3-15,5.8v5.4c0,1.8,0.4,2.1,2.7,2.1H159.9z"/>
		<path class="st0" d="M188.1,232.1c-1.5,3.7-3.3,7.3-5.3,10.9v36.6h-4.7v-29.3c-1.6,2.2-3.3,4.2-5,6c-0.5-1.2-1.9-3.9-2.8-5
			c5.2-4.9,10.1-12.7,13.1-20.5L188.1,232.1z M208.2,260.7c3.3,5.2,8.4,10.1,13.3,12.9c-1.1,1-2.7,2.7-3.5,4c-4.5-3-9.1-8-12.4-13.4
			v15.5h-5v-15.2c-3.6,5.4-8.3,10.1-13.1,13c-0.8-1.2-2.3-3-3.4-4c5.2-2.6,10.4-7.5,13.9-12.8h-12.2v-4.5h14.8v-5.8h-11.1v-17.5
			h27.7v17.5h-11.7v5.8H220v4.5H208.2z M194.2,245.9h18.1v-8.6h-18.1V245.9z"/>
		<path class="st0" d="M243.4,257.7c-2,0.6-4.1,1.3-6.1,1.9v14.1c0,2.6-0.5,4-2,4.8c-1.6,0.9-3.8,1-7.3,1c-0.2-1.3-0.9-3.5-1.5-4.9
			c2.2,0.1,4.3,0.1,4.9,0.1c0.7,0,1-0.2,1-1V261l-6.6,1.9l-1.2-4.9c2.1-0.5,4.8-1.2,7.8-2v-10.5h-6.9v-4.8h6.9v-10.4h4.9v10.4h5.7
			v4.8h-5.7v9.1l5.5-1.6L243.4,257.7z M272.1,239.6v21.5h-4.9v-3.2h-16.1c-0.4,7.4-2.1,16-7.4,21.9c-0.8-1.1-2.9-3-4-3.6
			c5.8-6.4,6.4-15.7,6.4-22.7v-13.9h12.3c-0.9-2.1-2.7-5.1-4.4-7.2l4.5-1.8c2,2.4,4,5.4,4.8,7.5l-3.7,1.6H272.1z M267.2,253.2V244
			h-16v9.2H267.2z"/>
	</g>
</g>
<path class="st1" d="M282.3,373.4H53.5C25.6,373.4,3,350.8,3,322.9V53.5C3,25.6,25.6,3,53.5,3h228.8c27.9,0,50.5,22.6,50.5,50.5
	v269.4C332.8,350.8,310.2,373.4,282.3,373.4z"/>
<path class="st0" d="M168.9,211.7c-1.7,0-3.3-0.6-6.7-1.9c-14.7-5.7-27.2-14.8-35.9-26.5c-9-11.9-13.8-26.3-13.8-41.2V97l56.4-22.6
	L225.3,97v45.1c0,14.9-4.8,29.3-13.8,41.2c-8.7,11.7-21.2,20.9-35.9,26.5C172.2,211.1,170.6,211.7,168.9,211.7L168.9,211.7z
	 M140.2,145.5l21.2,21.4l41.9-42.3l-7.4-7.4l-34.5,34.8l-13.8-14L140.2,145.5z"/>
</svg>
