<?xml version="1.0" encoding="utf-8"?>
<!-- Generator: Adobe Illustrator 23.0.1, SVG Export Plug-In . SVG Version: 6.00 Build 0)  -->
<svg version="1.1" id="图层_1" xmlns="http://www.w3.org/2000/svg" xmlns:xlink="http://www.w3.org/1999/xlink" x="0px" y="0px"
	 viewBox="0 0 335.8 376.4" style="enable-background:new 0 0 335.8 376.4;" xml:space="preserve">
<style type="text/css">
	.st0{fill:#F4F4F4;}
	.st1{fill:none;stroke:#F4F4F4;stroke-width:6;stroke-miterlimit:10;}
</style>
<g>
	<g>
		<path class="st0" d="M111.7,235.8v4.2H64.9v-4.2h21.3c-0.5-1.4-1-3.1-1.5-4.4l5-1.2c0.7,1.7,1.6,3.9,2.1,5.6H111.7z M110.3,274.7
			c0,2.4-0.6,3.3-2.3,3.9c-1.7,0.6-4.1,0.6-7.7,0.6c-0.3-1.1-1-2.6-1.6-3.7c2.3,0.1,4.9,0.1,5.5,0.1c0.7,0,1-0.2,1-0.9v-14.4H71.5
			v19.4h-4.9v-23.5h43.6V274.7z M104.8,242.6v11H72.6v-11H104.8z M81.4,274.2v2.5h-4.6v-13.8h22.7v11.3H81.4z M99.6,246.1h-22v4h22
			V246.1z M81.4,266.5v4.1h13.7v-4.1H81.4z"/>
		<path class="st0" d="M135.6,265.6l0.5,4.6c-6.1,1.6-12.5,3.2-17.5,4.4l-1.1-4.9c2.6-0.5,6.2-1.3,9.9-2.1
			c1.1-5.7,2.3-14.6,2.7-20.8l4.3,0.8c-0.9,6.1-2.1,13.7-3.3,19.2L135.6,265.6z M135.9,244.7H118v-4.6h17.9V244.7z M121.5,266.2
			c-0.1-5-1-12.7-2-18.5l3.8-0.7c1.1,5.9,2,13.4,2.1,18.5L121.5,266.2z M127.3,230.9c1.4,2.4,2.9,5.5,3.5,7.6l-4.4,1.6
			c-0.6-2.2-2-5.5-3.4-7.9L127.3,230.9z M153.4,253.9c-0.5,1.4-1,2.8-1.4,4.2h13.4v17.2c0,1.9-0.3,3-1.4,3.7
			c-1.2,0.6-2.8,0.8-5.2,0.8c-0.2-1.2-0.8-2.9-1.2-4c1.3,0.1,2.5,0.1,2.9,0.1c0.4,0,0.6-0.2,0.6-0.6v-12.9h-4V279H153v-16.7h-4v16.8
			h-3.9v-16.8h-3.9v17.3h-4.5v-21.5H147c0.3-1.3,0.6-2.7,0.8-4.2h-12.4v-4.5h31.1v4.5H153.4z M164.7,246.1h-27.1v-13h4.6v8.7h6.3
			v-11.2h4.8v11.2h6.8V233h4.8V246.1z"/>
		<path class="st0" d="M219.8,270.8v5h-48v-5h21v-29.4h-18.1v-5.2H217v5.2h-18.7v29.4H219.8z"/>
		<path class="st0" d="M237.6,240.7h-11.8v-4.8h11.8v-5.5h5.1v5.5H256v-5.5h5.2v5.5h11.5v4.8h-11.5v4.6H256v-4.6h-13.3v4.6h-5.1
			V240.7z M263.9,273.4c2.8,0,3.9-1.1,4.1-7.8c1.3,0.8,3.2,1.4,4.7,1.7c-0.7,9.2-3,11-9.3,11h-21.1c-7.2,0-10.6-2.6-10.6-6.7
			c0-3.3,1-6.5,21-18.2h-21.8v-4.6h30.8l1.1-0.2l3.5,2.6c-0.2,0.2-0.6,0.5-1.1,0.7c-26.4,14.5-28.3,17.3-28.3,19.2
			c0,1.6,2,2.3,5,2.3H263.9z"/>
	</g>
</g>
<path class="st1" d="M282.3,373.4H53.5C25.6,373.4,3,350.8,3,322.9V53.5C3,25.6,25.6,3,53.5,3h228.8c27.9,0,50.5,22.6,50.5,50.5
	v269.4C332.8,350.8,310.2,373.4,282.3,373.4z"/>
<path class="st0" d="M95.2,176.6c0,11.7,9.4,21.1,21.1,21.1s21.1-9.4,21.1-21.1c0-11.7-9.4-21.1-21.1-21.1S95.2,165,95.2,176.6z
	 M190.1,176.6c0,11.7,9.4,21.1,21.1,21.1c11.7,0,21.1-9.4,21.1-21.1c0-11.7-9.4-21.1-21.1-21.1C199.6,155.5,190.1,165,190.1,176.6z
	 M142.6,92.2c0,11.7,9.4,21.1,21.1,21.1s21.1-9.4,21.1-21.1s-9.4-21.1-21.1-21.1S142.6,80.6,142.6,92.2z M203.3,146
	c2.5-0.6,5.2-1,7.9-1c2.7,0,5.4,0.3,7.9,1v-37.8l-24.1-10.7c-0.9,5.4-3.2,10.4-6.4,14.5l14.7,6.5L203.3,146L203.3,146z M116.3,145
	c2.7,0,5.4,0.3,7.9,1v-27.8l14.7-6.4c-3.2-4.1-5.5-9.1-6.3-14.5l-24.2,10.6v38.1C110.9,145.3,113.5,145,116.3,145L116.3,145z
	 M180,181.8l-16.3,7.2l-16.3-7.2c-0.9,5.4-3.2,10.4-6.4,14.5l22.7,10.1l22.7-10.1C183.2,192.2,180.9,187.2,180,181.8L180,181.8z"/>
</svg>
