<?xml version="1.0" encoding="utf-8"?>
<!-- Generator: Adobe Illustrator 23.0.1, SVG Export Plug-In . SVG Version: 6.00 Build 0)  -->
<svg version="1.1" id="图层_1" xmlns="http://www.w3.org/2000/svg" xmlns:xlink="http://www.w3.org/1999/xlink" x="0px" y="0px"
	 viewBox="0 0 335.8 376.4" style="enable-background:new 0 0 335.8 376.4;" xml:space="preserve">
<style type="text/css">
	.st0{fill:#F4F4F4;}
	.st1{fill:none;stroke:#F4F4F4;stroke-width:6;stroke-miterlimit:10;}
</style>
<g>
	<g>
		<path class="st0" d="M81.8,267.6v6.8l11.3-1.6c-0.3,1.1-0.4,2.8-0.4,3.8c-13.5,2.2-15.3,2.6-16.4,3.1c-0.3-1.1-1.4-3.1-2.1-4
			c1.1-0.6,2.8-1.9,2.8-4.3v-3.8h-4c-0.8,4.3-2.5,9-5.9,12.4c-0.8-0.9-2.6-2.6-3.7-3.2c4.9-4.7,5.5-11.1,5.5-16v-7.3h41.6v3.5h-37
			v3.9c0,1-0.1,2.1-0.1,3.3h39.1v3.4h-6.5l3.4,1.8c-2.1,1.4-4.5,2.6-6.5,3.6c3.1,1,6.7,1.6,10.6,1.8c-1,1-2,2.6-2.5,3.9
			c-10.5-1.2-17.8-4.6-21.8-11.1H81.8z M70.3,247.5h-4.6v-9.2h20.2v-2.4h-17v-3.7h39v3.7H90.7v2.4h20.5v9.2h-4.8v-6.1H90.7v10.9
			h-4.8v-10.9H70.3V247.5z M71.2,248.5h12.5v2.7H71.2V248.5z M83.6,243.7v2.7H72.4v-2.7H83.6z M75.8,262.1v-3.2h31.6v3.2H75.8z
			 M104.5,243.7v2.7H93v-2.7H104.5z M93,248.5h12.8v2.7H93V248.5z M93.6,267.6c1.3,1.6,3.2,2.8,5.3,3.9c2.2-1.2,4.8-2.7,6.4-3.9
			H93.6z"/>
		<path class="st0" d="M138.7,271.7c-0.2-0.9-0.5-2-0.9-3.2c-14.1,3.4-16.1,4.1-17.5,4.9v-0.2c-0.1,0.1-0.1,0.1-0.1,0.2
			c-0.3-1-1.1-3.3-1.6-4.5c0.9-0.3,1.7-1.7,2.5-3.6c0.6-1.7,2.8-7.6,4.1-13.6h-7.1v-4.5h23.4v4.5h-11.3c-1.2,5.2-3.2,10.6-5,15.2
			l11.1-2.5c-0.9-2.5-1.8-5.2-2.8-7.5l4-1.1c2.1,4.6,4.3,10.8,5.3,14.4L138.7,271.7z M140.8,239.1h-20.7v-4.4h20.7V239.1z
			 M165.9,242.4c0,0-0.1,1.7-0.1,2.4c-0.6,21.7-1.2,29.3-3.1,31.7c-1.1,1.6-2.3,2.1-4.1,2.4c-1.7,0.2-4.5,0.2-7.3,0
			c-0.1-1.4-0.7-3.4-1.5-4.8c2.8,0.2,5.4,0.2,6.5,0.2c1,0.1,1.5-0.1,2-0.8c1.3-1.6,1.9-8.4,2.5-26.3h-6.9
			c-0.7,13.3-3,25.1-10.7,32.5c-0.8-1.2-2.5-3-3.8-3.7c7-6.4,9-16.8,9.6-28.8h-6.7v-4.8h6.9c0.1-3.6,0.1-7.2,0.1-11h4.9
			c0,3.8-0.1,7.4-0.2,11H165.9z"/>
		<path class="st0" d="M197.8,260.8h-15.3v-11.9h15.3v10.9c2.3-1.3,4.3-2.8,6.1-4.6c-1.8-4.1-3-9.5-3.6-15.6h-20v4
			c0,6.3-0.9,15.3-5.4,21.3c-0.7-0.9-2.6-2.5-3.6-3c3.9-5.5,4.5-13,4.5-18.3v-7.9h24.2c-0.1-1.7-0.2-3.4-0.2-5.2h4.7
			c0,1.8,0.1,3.5,0.2,5.2h6.8c-1.4-1.1-3.2-2.3-4.7-3.2l2.9-2.1c2.1,1.1,4.8,2.7,6.2,4l-1.7,1.3h5.6v4h-14.8
			c0.5,4.5,1.4,8.5,2.6,11.6c2.2-2.8,4-6.1,5.3-9.6l4.5,1.1c-1.9,4.9-4.5,9.3-7.7,13c1.5,2.4,3.2,3.6,5,3.6c1.2,0,1.7-1.9,2-6.6
			c1,0.9,2.7,1.8,3.9,2.1c-0.7,7.1-2.2,9-6.1,9c-3.3,0-6-1.7-8-4.7c-1.7,1.5-3.5,2.9-5.3,4.1c-0.6-0.8-2.1-2.3-3.1-3.1V260.8z
			 M171.4,275.9c2-2.6,4.1-6.7,5.3-9.7l4.3,1.6c-1.4,3-3.3,7.2-5,9.9L171.4,275.9z M198.6,246.2H182v-3.5h16.6V246.2z M202.3,275.2
			c2.8,0,3.2-0.8,3.5-6.2c1.1,0.8,3.2,1.4,4.6,1.7c-0.6,6.9-2.1,8.5-7.8,8.5h-11.2c-6.7,0-8.5-1.2-8.5-5.5v-8.4h5v8.3
			c0,1.4,0.6,1.7,3.9,1.7H202.3z M193.9,252.4h-7.5v4.9h7.5V252.4z M195.1,262.7c2.4,2.3,5.6,5.6,7,7.7l-4.2,2.2
			c-1.3-2.2-4.3-5.6-6.8-8L195.1,262.7z M213.8,265.2c2.1,3.1,4.7,7.3,5.8,10l-4.8,1.7c-1-2.7-3.4-7.1-5.5-10.3L213.8,265.2z"/>
		<path class="st0" d="M240.3,256.4c-0.2,1-0.3,2-0.5,3.1c2.7,2.6,8.9,9.6,10.4,11.4l-3.4,4.3c-1.8-2.7-5.4-7.3-8.2-10.6
			c-1.8,5.5-4.9,10.9-10.6,15c-0.7-1.1-2.5-3.1-3.5-3.8c7.6-5.4,10-12.7,10.8-19.4H225v-4.7h10.5V250v-8h-3.3c-1.1,3-2.5,5.6-4,7.8
			c-0.9-0.9-2.9-2.2-4.1-2.9c3.1-3.9,5.2-10.2,6.4-16.5l4.8,0.9c-0.4,2-0.9,4.1-1.4,6h14.6v4.7h-8v8c0,0.5,0,1,0,1.6h9.5v4.7H240.3z
			 M271.3,235v42.5h-5v-3.4h-9.8v4h-4.8V235H271.3z M266.2,269.4v-29.7h-9.8v29.7H266.2z"/>
	</g>
</g>
<path class="st1" d="M282.3,373.4H53.5C25.6,373.4,3,350.8,3,322.9V53.5C3,25.6,25.6,3,53.5,3h228.8c27.9,0,50.5,22.6,50.5,50.5
	v269.4C332.8,350.8,310.2,373.4,282.3,373.4z"/>
<path class="st0" d="M203.3,74.8c2.1,0,4.1,0.8,5.6,2.3s2.3,3.5,2.3,5.6v97.1L124.8,74.8H203.3z M100,88.1l7.9,23.7
	c0.5,1.6,0.5,3.4,0,5l-7.1,21.2l7.1,21.2c0.5,1.6,0.5,3.4,0,5l-7.9,23.7c-0.9,2.7-3.2,4.7-5.9,5.3s-5.6-0.4-7.5-2.5
	c-1.9-2.1-2.5-5.1-1.6-7.8l7.1-21.2L85,140.6c-0.5-1.6-0.5-3.4,0-5l7.1-21.2L85,93.1c-1.4-4.2,0.9-8.6,5-10
	C94.1,81.7,98.6,84,100,88.1z M233.4,82.7c2.8-0.6,5.7,0.4,7.6,2.5c1.9,2.2,2.5,5.2,1.5,7.9l-7.1,21.2l7.1,21.2c0.5,1.6,0.5,3.4,0,5
	l-7.1,21.2l7.1,21.2c1,2.7,0.4,5.7-1.5,7.9c-1.9,2.2-4.8,3.1-7.6,2.5c-2.8-0.6-5.1-2.7-5.9-5.4l-7.9-23.7c-0.5-1.6-0.5-3.4,0-5
	l7.1-21.3l-7.1-21.2c-0.5-1.6-0.5-3.4,0-5l7.9-23.7C228.3,85.4,230.6,83.3,233.4,82.7z M116.2,92.4l89.4,108.6
	c-0.8,0.2-1.6,0.4-2.3,0.4h-79.1c-4.4,0-7.9-3.5-7.9-7.9C116.2,193.5,116.2,92.4,116.2,92.4z"/>
</svg>
