<?xml version="1.0" encoding="utf-8"?>
<!-- Generator: Adobe Illustrator 23.0.1, SVG Export Plug-In . SVG Version: 6.00 Build 0)  -->
<svg version="1.1" id="图层_1" xmlns="http://www.w3.org/2000/svg" xmlns:xlink="http://www.w3.org/1999/xlink" x="0px" y="0px"
	 viewBox="0 0 335.8 376.4" style="enable-background:new 0 0 335.8 376.4;" xml:space="preserve">
<style type="text/css">
	.st0{fill:#F4F4F4;}
	.st1{fill:none;stroke:#F4F4F4;stroke-width:6;stroke-miterlimit:10;}
</style>
<g>
	<g>
		<path class="st0" d="M69.5,241.7c-0.1,4.4-0.9,10.3-2.1,14.1l-3.7-1.4c1.2-3.3,2.1-8.9,2.3-13.2L69.5,241.7z M111.3,232.8v46.5
			h-4.7v-2.7H88v3.2h-4.5v-9.1l-3.5,3.6c-1.1-2.2-3.3-5.7-5.2-8.6c-1.3,5.2-3.5,10-7.5,14.2c-0.8-1.1-2.4-2.8-3.4-3.6
			c7-7.7,7.8-17.7,7.8-27.3v-18.1h4.6V249c0,3.6-0.1,7.2-0.5,10.8c1.8,2.1,6.3,8.8,7.7,10.7v-27.8c-1.4,3.4-2.8,7-4,9.4l-3.1-1.4
			c1.3-3,2.8-7.7,3.5-11.1l3.6,1.4v-8.2H111.3z M106.6,272.2v-34.8H88v30.5c4.9-5,6.5-10.9,7-16.4h-5.8v-4.1h6.1v-1.5v-6.9h3.9v7
			v1.4h6.2v4.1H99c-0.1,0.8-0.1,1.5-0.2,2.3c3,4.8,6.3,10.8,7.9,14.4l-3.5,2.1c-1.1-2.8-3.2-7.1-5.5-11.1c-1.2,4.1-3.2,8.2-6.8,11.7
			c-0.6-0.8-1.9-2-3-2.7v4.1H106.6z"/>
		<path class="st0" d="M127.8,255.2c-2.3-1.7-6.8-4.2-10.1-5.9l2.7-3.7c3.2,1.4,7.9,3.8,10.2,5.5L127.8,255.2z M119.5,275.6
			c2.5-3.6,5.9-9.7,8.6-15.1l3.8,3.2c-2.4,5-5.4,10.6-8.1,15.1L119.5,275.6z M123.3,231.1c3.4,1.5,8.1,4,10.4,5.7l-2.9,4.1
			c-2.3-1.7-6.9-4.4-10.4-6.1L123.3,231.1z M164.7,241.5v37.7h-4.8v-2.8h-20.4v3.2h-4.7v-38h12.3v-10.9h4.9v10.9H164.7z
			 M139.5,246.2v10.1h7.6v-10.1H139.5z M139.5,271.5h7.6v-10.4h-7.6V271.5z M152,246.2v10.1h7.9v-10.1H152z M159.9,271.5v-10.4H152
			v10.4H159.9z"/>
		<path class="st0" d="M182.8,269c1.2,0.5,2.5,1.6,4.7,2.6c3.5,1.9,8.2,2.3,13.9,2.3c5.8,0,13.9-0.4,19-1c-0.5,1.3-1.2,3.5-1.3,4.9
			c-3.8,0.3-12.8,0.6-17.9,0.6c-6.4,0-10.9-0.6-14.8-2.6c-2.4-1.2-4-2.7-5.3-2.7c-1.9,0-4.6,2.9-7.2,6.1l-3.1-4.2
			c2.4-2.4,4.8-4.3,7-5.4V254h-6.9v-4.6h11.6V269z M179.9,243.8c-1.5-2.5-4.9-6.3-7.8-8.8l3.7-2.7c2.9,2.4,6.4,5.9,8,8.4
			L179.9,243.8z M200.5,247.5h-14.8v-4.4h14.8v-5.6c-3.9,0.4-7.8,0.6-11.4,0.9c-0.2-1.1-0.7-2.9-1.2-4c9-0.6,20-1.8,26.4-3.7
			l2.4,4.2c-3.2,0.8-7.1,1.5-11.3,2.1v6.2H220v4.4h-14.5v6h10.9v15.7h-26.7v-15.7h10.8V247.5z M211.5,257.6h-17v7.7h17V257.6z"/>
		<path class="st0" d="M225.5,232.4h24v4.4h-7v5.4h5.8v36.5h-4v-2.8h-13.8v3.5h-3.9v-37.2h6.3v-5.4h-7.5V232.4z M230.6,263.6h13.8
			v-4.4c-0.2,0.1-0.4,0.1-0.6,0.1h-2.2c-2.2,0-2.8-0.6-2.8-3.4v-9.4h-2.5v4.2c0,3.2-0.6,7.3-3.6,10.2c-0.4-0.5-1.4-1.4-2-1.8
			c2.7-2.5,3.1-5.8,3.1-8.5v-4.2h-3.1V263.6z M244.4,271.9v-4.7h-13.8v4.7H244.4z M239.1,236.8h-2.7v5.4h2.7V236.8z M244.4,246.4
			h-3.1v9.4c0,0.7,0.1,0.8,0.6,0.8h1.5c0.5,0,0.7-0.1,0.8-0.2c0.1,0.1,0.2,0.1,0.3,0.2V246.4z M266.9,274.4c2.2,0,2.6-1.3,2.9-8.8
			c1.1,0.9,3.2,1.8,4.5,2.1c-0.5,8.8-1.9,11.3-7,11.3H259c-5.3,0-7-1.4-7-7.1v-22.6h15.5v-11.6h-15.7v-4.8h20.5v24.7h-4.8V254h-10.6
			v17.9c0,2.1,0.4,2.5,2.7,2.5H266.9z"/>
	</g>
</g>
<path class="st1" d="M282.3,373.4H53.5C25.6,373.4,3,350.8,3,322.9V53.5C3,25.6,25.6,3,53.5,3h228.8c27.9,0,50.5,22.6,50.5,50.5
	v269.4C332.8,350.8,310.2,373.4,282.3,373.4z"/>
<path class="st0" d="M233.7,154.9h-13.3c-3.9,0-7.2,3.1-7.3,7.1h-19.6c-1.3-1.1-3-1.7-4.7-1.7H179v-8.9h10.3c6.1,0,11-4.9,11-11
	V93.1c0-5.7-4.3-10.4-9.9-10.9v-9.8c0-2.5-2-4.4-4.4-4.4h-2.3c-2.5,0-4.4,2-4.4,4.4v9.7h-32.8c-6.1,0-11,4.9-11,11v47.2
	c0,6.1,4.9,11,11,11h10.4v8.9h-8.9c-1.7,0-3.4,0.6-4.7,1.7h-18.5v-1.9c0-4.1-3.3-7.4-7.3-7.4c0,0,0,0,0,0H104
	c-4.1,0-7.4,3.3-7.4,7.4v38.5c0,4.1,3.3,7.4,7.4,7.4h13.3c4.1,0,7.4-3.3,7.4-7.4l0,0v-2.1h16.2c0.8,3.3,3.6,5.7,7,5.7h40.6
	c3.4,0,6.4-2.4,7.2-5.7h17.1v4.4c0,4.1,3.3,7.4,7.4,7.4l0,0h13.3c4.1,0.2,7.5-2.9,7.8-7c0-0.2,0-0.3,0-0.5v-38.5
	c0-4.1-3.3-7.4-7.4-7.4C233.8,154.9,233.7,154.9,233.7,154.9z M157.7,114.9c0-1.5,1.2-2.8,2.8-2.8s2.8,1.2,2.8,2.8
	c0,1.5-1.2,2.8-2.8,2.8c0,0,0,0,0,0C158.9,117.7,157.7,116.4,157.7,114.9L157.7,114.9z M167.9,114.9c0-1.5,1.2-2.8,2.8-2.8
	c1.5,0,2.8,1.2,2.8,2.8s-1.2,2.8-2.8,2.8c0,0,0,0,0,0C169.1,117.7,167.9,116.4,167.9,114.9L167.9,114.9z M146.3,108.2
	c-1.4,0-2.6-1.1-2.6-2.5c0,0,0,0,0,0v-8.8c0-1.4,1.2-2.6,2.6-2.6l0,0h45.2c1.4,0,2.6,1.2,2.6,2.6l0,0v8.9c0,1.4-1.2,2.6-2.6,2.6
	c0,0,0,0,0,0L146.3,108.2z M150.1,117.7c-1.5,0-2.8-1.2-2.8-2.8c0-1.5,1.2-2.8,2.8-2.8c1.5,0,2.8,1.2,2.8,2.8c0,0,0,0.1,0,0.1
	C152.8,116.4,151.6,117.6,150.1,117.7L150.1,117.7z"/>
</svg>
