<?xml version="1.0" encoding="utf-8"?>
<!-- Generator: Adobe Illustrator 23.0.1, SVG Export Plug-In . SVG Version: 6.00 Build 0)  -->
<svg version="1.1" id="图层_1" xmlns="http://www.w3.org/2000/svg" xmlns:xlink="http://www.w3.org/1999/xlink" x="0px" y="0px"
	 viewBox="0 0 335.8 376.4" style="enable-background:new 0 0 335.8 376.4;" xml:space="preserve">
<style type="text/css">
	.st0{fill:#F4F4F4;}
	.st1{fill:none;stroke:#F4F4F4;stroke-width:6;stroke-miterlimit:10;}
</style>
<g>
	<g>
		<path class="st0" d="M77.3,231.8c-1.1,3.5-2.4,7.1-3.8,10.5v37.3h-4.4V251c-1.1,1.7-2.1,3.3-3.2,4.7c-0.4-1.2-1.6-4-2.4-5.2
			c3.9-4.9,7.3-12.4,9.3-20L77.3,231.8z M88.9,250.1c-0.6,7.8-1.9,14-3.9,18.8c4.7,4.7,11.2,5.8,18.1,5.8c1.7,0,7.8,0,10-0.1
			c-0.6,1-1.3,3-1.6,4.1h-8.7c-7.7,0-14.5-1.2-19.7-6c-1.7,2.9-3.7,5.2-6.1,6.9c-0.7-1-2.3-2.5-3.3-3.1c2.6-1.7,4.7-4.1,6.4-7.3
			c-1.8-2.6-3.4-5.7-4.6-9.8l3.6-1.3c0.8,2.7,1.7,5,2.8,6.9c1.1-3.3,1.9-7,2.4-11.5h-8c1.8-4,4-9.9,5.9-15.1H77v-4.3h11.4
			c-1.7,4.9-3.9,10.8-5.8,15.5h3.3l0.5-0.1L88.9,250.1z M97.2,238.4h-6.5v-3.7h6.5v-4.2h4.1v4.2h7.9v7.1h3.5v3.8h-3.5v7.2h-7.9v3.3
			h8.8v3.9h-8.8v3.5h10.4v3.9h-10.4v5.7h-4.1v-5.7h-8.5v-3.9h8.5v-3.5h-7.2v-3.9h7.2v-3.3h-6.5V249h6.5v-3.5h-8.9v-3.8h8.9V238.4z
			 M101.4,238.4v3.4h4.1v-3.4H101.4z M105.5,245.5h-4.1v3.5h4.1V245.5z"/>
		<path class="st0" d="M163.9,263.5c-2.7,1.8-5.8,3.7-8.5,5.2c3.2,2.1,7.2,3.8,11.5,4.7c-1,1-2.3,2.8-3,4c-6.5-1.8-12-5.3-15.9-10
			v7.1c0,2.7-0.7,3.9-2.6,4.5c-1.9,0.7-4.8,0.8-9.3,0.8c-0.2-1.2-0.9-3.1-1.6-4.2c3,0.2,6.3,0.1,7.1,0.1c1,0,1.3-0.3,1.3-1.2v-4.7
			c-5.3,2.4-10.8,4.9-15.2,6.8l-1.9-4.1c4.2-1.5,10.8-4.1,17.1-6.6v-5.6h-13.5v-3.5H143v-3.5h-15.3v-3.6H143v-3.2h-13v-3.5h13v-3.6
			h-16.5v11.2c0,8.5-0.8,21-5.4,29.1c-0.9-0.9-3-2.3-4-2.7c4.2-7.6,4.6-18.5,4.6-26.4v-15.6h20.7c-0.7-1.3-1.4-2.6-2-3.7l4.9-1.2
			c1,1.4,2.1,3.4,2.9,4.9H166v4.4h-18v3.6h13.6v6.3h5v4.3h-5v6.7H148v0.9c1.1,1.9,2.5,3.6,4.2,5.2c2.7-1.7,6-3.9,8-5.6L163.9,263.5z
			 M131.1,260.2c2.5,1.4,6.1,3.8,7.8,5.2l-2.8,3.1c-1.7-1.6-5.1-3.9-7.7-5.5L131.1,260.2z M148,249.5h8.9v-3.2H148V249.5z
			 M148,256.6h8.9v-3.5H148V256.6z"/>
		<path class="st0" d="M182,259.8v13.9c0,2.5-0.5,3.8-1.9,4.6c-1.4,0.8-3.6,1-7,1c-0.1-1.2-0.7-3.3-1.3-4.6c2.1,0.1,4.1,0.1,4.7,0.1
			c0.6,0,0.9-0.2,0.9-1v-12.4l-5.6,1.7l-1.1-4.8c1.9-0.5,4.2-1.1,6.8-1.8v-10.8h-6.2v-4.6h6.2v-10.4h4.6v10.4h5.7v4.6H182v9.4
			l5.2-1.5l0.7,4.5L182,259.8z M205.9,274.3c1.4,0.2,2.9,0.3,4.5,0.3s8.5,0,10.5-0.1c-0.6,1.1-1.2,3.2-1.4,4.4h-9.2
			c-7.5,0-13-1.3-16.5-8.4c-1.4,3.8-3.4,6.8-6.1,9.2c-0.8-0.8-2.6-2.4-3.8-3c4.7-3.7,7-9.7,7.8-17.3l4.5,0.5c-0.3,2-0.6,3.9-1,5.6
			c1.4,3.9,3.4,6.2,6,7.4v-15.7h-12.9v-4.1h31v4.1h-13.4v5.6h10.7v4h-10.7V274.3z M216.6,249.9h-25.6v-17.8h25.6V249.9z
			 M211.8,235.8h-16.3v3.5h16.3V235.8z M211.8,242.7h-16.3v3.5h16.3V242.7z"/>
		<path class="st0" d="M274.1,274.3v4.1h-25.4v-4.1H259V269H251v-3.9h7.9v-4.5h-6.1c-1,1.6-2,3.1-3,4.3c-0.6-0.5-1.9-1.3-2.9-1.9
			v15.7h-3.9v-3h-13.4v3.8h-3.8v-36.6h5.6v-6.1h-6.4v-4.2h22.6v4.2h-6.4v6.1h5.7V262c2.3-2.5,4.1-6.3,5.1-10l3.9,0.9
			c-0.4,1.3-0.8,2.6-1.2,3.8h4.2v-4.2h4.5v4.2h9.3v4h-9.3v4.5h8.4v3.9h-8.4v5.3H274.1z M235.1,251c0,3.1-0.7,7.1-3.6,9.9
			c-0.4-0.4-1.2-1.1-1.8-1.6v4.1h13.4v-3.8h-0.3h-2.4c-2.2,0-2.8-0.6-2.8-3.4V247h-2.5V251z M229.7,247v11.9
			c2.5-2.4,2.8-5.4,2.8-7.9v-4H229.7z M243.1,271.7V267h-13.4v4.7H243.1z M235.1,242.8h2.7v-6.1h-2.7V242.8z M243.1,247h-2.9v9.1
			c0,0.7,0.1,0.8,0.6,0.8h1.6c0.5,0,0.6-0.1,0.8-0.1V247z M271.6,251.4h-21.2v-18.8h21.2V251.4z M267.1,236.4h-12.4v3.8h12.4V236.4z
			 M267.1,243.7h-12.4v3.9h12.4V243.7z"/>
	</g>
</g>
<path class="st1" d="M282.3,373.4H53.5C25.6,373.4,3,350.8,3,322.9V53.5C3,25.6,25.6,3,53.5,3h228.8c27.9,0,50.5,22.6,50.5,50.5
	v269.4C332.8,350.8,310.2,373.4,282.3,373.4z"/>
<path class="st0" d="M150,99.1c-2.9-4.5-7-7.9-11.8-9.9c-1.6-0.7-3.3-1.2-5-1.6c0,0-0.1,0-0.2,0c-0.8-0.2-1.7-0.3-2.5-0.4
	c-0.2,0-0.5,0-0.7,0c-0.6,0-1.3-0.1-1.9-0.1c-0.7,0-1.5,0-2.3,0.1c-0.2,0-0.4,0-0.6,0.1c-0.6,0-1.2,0.1-1.7,0.2
	c-0.2,0-0.5,0.1-0.7,0.1c-0.6,0.1-1.3,0.3-1.9,0.5c-0.1,0-0.2,0-0.3,0.1c-0.7,0.2-1.5,0.5-2.2,0.7c-0.2,0.1-0.4,0.2-0.6,0.2
	c-0.6,0.2-1.1,0.5-1.6,0.7c-0.2,0.1-0.4,0.2-0.6,0.3c-0.7,0.4-1.4,0.8-2,1.2c0,0-0.1,0-0.1,0.1c-0.7,0.5-1.4,1-2,1.5
	c-0.1,0.1-0.2,0.2-0.3,0.3c-0.6,0.5-1.2,1-1.7,1.5l-0.1,0.1c-7.6,7.5-9.9,18.8-6,28.6v0c0.3,0.7,0.6,1.5,1,2.2l0.1,0.3
	c0.4,0.8,0.9,1.6,1.4,2.3l6.5,9.9l19.9,30.4c0-0.2,0.1-0.4,0.1-0.6c0.2-0.8,0.4-1.7,0.6-2.5c0-0.1,0.1-0.2,0.1-0.4
	c1-3.4,2.5-6.8,4.6-9.9l24.7-37.9L150,99.1L150,99.1z M236.2,108.1c-1.5-7-5.5-12.9-11.5-16.9c-3.8-2.5-8.2-4-12.6-4.3
	c-0.6,0-1.2,0-1.9,0c-1.8,0-3.7,0.2-5.5,0.6c-7,1.5-12.9,5.5-16.9,11.5l-12,18.3l-3.5,5.3l-3.5,5.3l-21.9,33.5
	c-3.9,5.9-5.3,13.1-3.8,20c1.5,7,5.5,12.9,11.5,16.9c1.3,0.8,2.6,1.5,4,2.1c0.3,0.1,0.5,0.2,0.7,0.3c0.2,0.1,0.5,0.1,0.7,0.2
	c0.7,0.3,1.4,0.5,2.1,0.7c0,0,0.1,0,0.1,0c2.2,0.6,4.3,0.9,6.5,0.9c5.9,0.1,11.7-1.8,16.5-5.3c0,0,0,0,0.1,0
	c0.6-0.4,1.1-0.9,1.7-1.3l0.1-0.1c0.5-0.5,1-1,1.5-1.5l0.1-0.1c1-1.1,2-2.3,2.8-3.6l9.4-14.4l5.1-7.8l26.4-40.4
	C236.3,122.2,237.7,115.1,236.2,108.1L236.2,108.1z"/>
</svg>
