<?xml version="1.0" encoding="utf-8"?>
<!-- Generator: Adobe Illustrator 23.0.1, SVG Export Plug-In . SVG Version: 6.00 Build 0)  -->
<svg version="1.1" id="图层_1" xmlns="http://www.w3.org/2000/svg" xmlns:xlink="http://www.w3.org/1999/xlink" x="0px" y="0px"
	 viewBox="0 0 106.83 133.33" style="enable-background:new 0 0 106.83 133.33;" xml:space="preserve">
<style type="text/css">
	.st0{fill:#FFFFFF;}
	.st1{fill:none;stroke:#FFFFFF;stroke-width:2.8346;stroke-miterlimit:10;}
	.st2{font-family:'SourceHanSansCN-Medium-GBpc-EUC-H';}
	.st3{font-size:18.5206px;}
</style>
<path class="st0" d="M74.98,38.31c-0.43,0-0.86-0.18-1.18-0.52c-4.26-4.67-10.32-7.35-16.63-7.35c-6.22,0-12.01,2.48-16.3,6.99
	c-0.61,0.64-1.62,0.66-2.26,0.06c-0.64-0.61-0.66-1.62-0.06-2.26c2.37-2.5,5.17-4.46,8.31-5.84c3.25-1.43,6.72-2.15,10.3-2.15
	c3.68,0,7.23,0.76,10.56,2.26c3.21,1.45,6.05,3.51,8.43,6.13c0.59,0.65,0.55,1.66-0.1,2.25C75.76,38.16,75.38,38.31,74.98,38.31
	L74.98,38.31z M57.17,78.62c-3.47,0-6.83-0.68-10-2.02c-3.06-1.29-5.81-3.15-8.16-5.5c-2.36-2.36-4.21-5.11-5.5-8.16
	c-1.34-3.17-2.02-6.53-2.02-10c0-1.48,0.13-2.97,0.38-4.42c0.15-0.87,0.98-1.45,1.84-1.3c0.87,0.15,1.45,0.98,1.3,1.84
	c-0.22,1.27-0.33,2.58-0.33,3.88c0,12.4,10.09,22.5,22.5,22.5c7.82,0,14.96-3.96,19.1-10.61c0.47-0.75,1.45-0.98,2.2-0.51
	s0.98,1.45,0.51,2.2c-2.27,3.63-5.43,6.67-9.15,8.78C65.98,77.47,61.61,78.62,57.17,78.62L57.17,78.62z"/>
<path class="st0" d="M77.82,66.94c-0.4,0-0.79-0.15-1.08-0.42L62.38,53.29c-0.6-0.55-0.69-1.47-0.2-2.13l11.52-15.4
	c0.53-0.71,1.53-0.85,2.23-0.32c0.71,0.53,0.85,1.53,0.32,2.23L65.59,51.91l13.3,12.26c0.65,0.6,0.69,1.61,0.09,2.25
	C78.68,66.77,78.25,66.94,77.82,66.94L77.82,66.94z M57.8,44.79c-2.79,0-5.05-2.27-5.05-5.05s2.27-5.05,5.05-5.05
	c2.79,0,5.05,2.27,5.05,5.05S60.58,44.79,57.8,44.79z M57.8,37.88c-1.03,0-1.86,0.83-1.86,1.86s0.83,1.86,1.86,1.86
	s1.86-0.83,1.86-1.86S58.82,37.88,57.8,37.88L57.8,37.88z"/>
<path class="st1" d="M84.95,131.92H21.89c-11.31,0-20.47-9.16-20.47-20.47V21.89c0-11.31,9.16-20.47,20.47-20.47h63.06
	c11.31,0,20.47,9.16,20.47,20.47v89.56C105.42,122.76,96.26,131.92,84.95,131.92z"/>
<text transform="matrix(1 0 0 1 16.5941 104.2952)" class="st0 st2 st3">口味独特</text>
</svg>
