<?xml version="1.0" encoding="utf-8"?>
<!-- Generator: Adobe Illustrator 23.0.1, SVG Export Plug-In . SVG Version: 6.00 Build 0)  -->
<svg version="1.1" id="图层_1" xmlns="http://www.w3.org/2000/svg" xmlns:xlink="http://www.w3.org/1999/xlink" x="0px" y="0px"
	 viewBox="0 0 106.83 133.33" style="enable-background:new 0 0 106.83 133.33;" xml:space="preserve">
<style type="text/css">
	.st0{fill:none;stroke:#FFFFFF;stroke-width:2.8346;stroke-miterlimit:10;}
	.st1{fill:#FFFFFF;}
	.st2{font-family:'SourceHanSansCN-Medium-GBpc-EUC-H';}
	.st3{font-size:18.5206px;}
</style>
<path class="st0" d="M84.95,131.92H21.89c-11.31,0-20.47-9.16-20.47-20.47V21.89c0-11.31,9.16-20.47,20.47-20.47h63.06
	c11.31,0,20.47,9.16,20.47,20.47v89.56C105.42,122.76,96.26,131.92,84.95,131.92z"/>
<text transform="matrix(1 0 0 1 16.5941 104.2952)" class="st1 st2 st3">娇小机身</text>
<g>
	<path class="st1" d="M82.42,48.1c-1.51,0.09-3.04,0.1-4.54,0.28c-6.02,0.73-11.18-0.67-15.05-5.68c-0.78-1.01-1.86-1.82-2.87-2.64
		c-4.25-3.43-4.96-3.58-8.6,0.38c-3.03,3.3-6.35,4.26-10.52,3.13c-1.25-0.34-2.56-0.66-3.84-0.66c-1.85,0-3.24,1.19-2.05,2.86
		c2.43,3.38,1.06,7.43,2.43,11.15c1.18,3.22,3.42,5.7,4.5,8.86c0.57,1.65,2.72,1.81,4.55,1.92c5.56,0.35,10.82-0.89,15.87-2.97
		c3.87-1.59,7.79-2.68,11.98-2.65c1.03,0.01,2.15-0.07,2.68,1.15c-0.13,1.05-0.86,1.58-1.76,1.53c-4.93-0.24-9.39,1.48-13.83,3.25
		c-4.95,1.96-10.05,2.52-15.33,2.39c-3.37-0.08-5.55-1.63-7.55-4.26c-4.75-6.28-5.4-13.79-6.73-21.08c-0.53-2.93,1.23-4.27,6-5.27
		c1-3.66-0.86-7.13-1-10.73c-0.16-4.22,2.24-6.53,6.38-6.28c3.19,0.19,4.56,2.25,5.07,5.03c0.54,2.97,0.29,6.09,1.88,9.35
		c4.45-3.88,8.96-2.74,12.13,1.23c5.42,6.79,12.2,8.4,20.23,7.1C82.42,46.35,82.42,47.22,82.42,48.1z"/>
</g>
</svg>
