<?xml version="1.0" encoding="utf-8"?>
<!-- Generator: Adobe Illustrator 23.0.1, SVG Export Plug-In . SVG Version: 6.00 Build 0)  -->
<svg version="1.1" id="图层_1" xmlns="http://www.w3.org/2000/svg" xmlns:xlink="http://www.w3.org/1999/xlink" x="0px" y="0px"
	 viewBox="0 0 106.83 133.33" style="enable-background:new 0 0 106.83 133.33;" xml:space="preserve">
<style type="text/css">
	.st0{fill:none;stroke:#FFFFFF;stroke-width:2.8346;stroke-miterlimit:10;}
	.st1{fill:#FFFFFF;}
	.st2{font-family:'SourceHanSansCN-Medium-GBpc-EUC-H';}
	.st3{font-size:18.5206px;}
</style>
<path class="st0" d="M84.95,131.92H21.89c-11.31,0-20.47-9.16-20.47-20.47V21.89c0-11.31,9.16-20.47,20.47-20.47h63.06
	c11.31,0,20.47,9.16,20.47,20.47v89.56C105.42,122.76,96.26,131.92,84.95,131.92z"/>
<text transform="matrix(1 0 0 1 16.5941 104.2952)" class="st1 st2 st3">炫彩烤漆</text>
<path class="st1" d="M64.15,52.1l-13.9-4.11L46.48,34c-0.17-0.64-0.75-1.09-1.42-1.1c-0.66,0-1.26,0.43-1.44,1.07l-4.1,13.9
	l-14,3.77c-0.64,0.17-1.09,0.75-1.1,1.42c-0.01,0.66,0.43,1.26,1.06,1.44l13.9,4.11l3.77,13.99c0.17,0.64,0.75,1.09,1.42,1.1h0.02
	c0.66,0,1.24-0.43,1.42-1.06l4.1-13.9l14-3.77c0.64-0.17,1.09-0.75,1.1-1.42C65.22,52.88,64.78,52.29,64.15,52.1L64.15,52.1z
	 M48.55,56.09c-0.5,0.13-0.89,0.52-1.04,1.01l-2.85,9.66l-2.62-9.73c-0.13-0.5-0.52-0.89-1.01-1.04l-9.66-2.85l9.73-2.62
	c0.5-0.13,0.89-0.52,1.04-1.01l2.85-9.66l2.62,9.73c0.13,0.5,0.52,0.89,1.01,1.04l9.65,2.85L48.55,56.09z M85.96,40.37l-9.38-2.77
	l-2.54-9.45c-0.16-0.6-0.7-1.02-1.32-1.03c-0.61-0.01-1.17,0.4-1.34,0.99l-2.77,9.38l-9.45,2.55c-0.6,0.16-1.01,0.7-1.02,1.32
	c-0.01,0.62,0.4,1.17,0.99,1.34l9.38,2.77l2.55,9.45c0.16,0.6,0.7,1.01,1.32,1.02h0.01c0.61,0,1.15-0.4,1.33-0.99l2.77-9.38
	l9.45-2.55c0.6-0.16,1.01-0.7,1.02-1.32C86.96,41.09,86.55,40.54,85.96,40.37L85.96,40.37z M75.02,43.11
	c-0.46,0.13-0.83,0.48-0.96,0.94l-1.6,5.43l-1.47-5.47c-0.13-0.46-0.48-0.83-0.94-0.96l-5.43-1.6l5.47-1.47
	c0.46-0.13,0.83-0.48,0.96-0.94l1.6-5.43l1.47,5.47c0.13,0.46,0.48,0.83,0.94,0.96l5.43,1.6L75.02,43.11z"/>
</svg>
