<?xml version="1.0" encoding="utf-8"?>
<!-- Generator: Adobe Illustrator 23.0.1, SVG Export Plug-In . SVG Version: 6.00 Build 0)  -->
<svg version="1.1" id="图层_1" xmlns="http://www.w3.org/2000/svg" xmlns:xlink="http://www.w3.org/1999/xlink" x="0px" y="0px"
	 viewBox="0 0 106.83 133.33" style="enable-background:new 0 0 106.83 133.33;" xml:space="preserve">
<style type="text/css">
	.st0{fill:none;stroke:#FFFFFF;stroke-width:2.8346;stroke-miterlimit:10;}
	.st1{fill:#FFFFFF;}
	.st2{font-family:'SourceHanSansCN-Medium-GBpc-EUC-H';}
	.st3{font-size:18.5206px;}
</style>
<path class="st0" d="M84.95,131.92H21.89c-11.31,0-20.47-9.16-20.47-20.47V21.89c0-11.31,9.16-20.47,20.47-20.47h63.06
	c11.31,0,20.47,9.16,20.47,20.47v89.56C105.42,122.76,96.26,131.92,84.95,131.92z"/>
<text transform="matrix(1 0 0 1 16.5941 104.2952)" class="st1 st2 st3">超长续航</text>
<g>
	<path class="st1" d="M73.03,60.06v-2.24h1.15c2.4,0,4.36-1.96,4.36-4.36V45c0-2.4-1.96-4.36-4.36-4.36h-1.15V38.4
		c0-2.4-1.96-4.36-4.36-4.36h-31.8c-2.4,0-4.36,1.96-4.36,4.36v21.67c0,2.4,1.96,4.36,4.36,4.36h31.8
		C71.07,64.42,73.03,62.46,73.03,60.06z M74.18,42.94c1.13,0,2.05,0.92,2.05,2.05v8.46c0,1.13-0.92,2.05-2.05,2.05h-1.15V42.94
		H74.18z M36.87,62.11c-1.13,0-2.05-0.92-2.05-2.05V38.39c0-1.13,0.92-2.05,2.05-2.05h31.8c1.13,0,2.05,0.92,2.05,2.05v21.67
		c0,1.13-0.92,2.05-2.05,2.05H36.87L36.87,62.11z"/>
	<path class="st1" d="M67.32,51.27l-16.3-10.99v4.62H39.26l16.49,11.6v-5.22h11.57V51.27z M53.44,52.05l-6.89-4.85h6.78v-2.58
		l6.44,4.35h-6.33V52.05L53.44,52.05z"/>
</g>
</svg>
