<?xml version="1.0" encoding="utf-8"?>
<!-- Generator: Adobe Illustrator 23.0.1, SVG Export Plug-In . SVG Version: 6.00 Build 0)  -->
<svg version="1.1" id="图层_1" xmlns="http://www.w3.org/2000/svg" xmlns:xlink="http://www.w3.org/1999/xlink" x="0px" y="0px"
	 viewBox="0 0 106.83 133.33" style="enable-background:new 0 0 106.83 133.33;" xml:space="preserve">
<style type="text/css">
	.st0{fill:none;stroke:#FFFFFF;stroke-width:2.8346;stroke-miterlimit:10;}
	.st1{fill:#FFFFFF;}
	.st2{font-family:'SourceHanSansCN-Medium-GBpc-EUC-H';}
	.st3{font-size:18.5206px;}
</style>
<path class="st0" d="M84.95,131.92H21.89c-11.31,0-20.47-9.16-20.47-20.47V21.89c0-11.31,9.16-20.47,20.47-20.47h63.06
	c11.31,0,20.47,9.16,20.47,20.47v89.56C105.42,122.76,96.26,131.92,84.95,131.92z"/>
<text transform="matrix(1 0 0 1 16.5941 104.2952)" class="st1 st2 st3">三重保护</text>
<g>
	<g>
		<g>
			<path class="st1" d="M60.2,71.35v-6.21h-5.79v6.21h-1.97v-6.21h-5.79v6.21h-1.97v-6.21h-5.23c-0.54,0-0.99-0.44-0.99-0.99v-5.23
				h-6.21v-1.97h6.21v-5.79h-6.21v-1.97h6.21V43.4h-6.21v-1.98h6.21v-5.23c0-0.54,0.44-0.99,0.99-0.99h5.23v-6.21h1.97v6.21h5.79
				v-6.21h1.97v6.21h5.79v-6.21h1.97v6.21h5.23c0.54,0,0.99,0.44,0.99,0.99v5.23h6.21v1.97h-6.21v5.79h6.21v1.97h-6.21v5.79h6.21
				v1.97h-6.21v5.23c0,0.54-0.44,0.99-0.99,0.99h-5.23v6.21L60.2,71.35L60.2,71.35z M41.38,37.17c-0.53,0-0.96,0.43-0.96,0.96v24.08
				c0,0.53,0.43,0.96,0.96,0.96h24.08c0.53,0,0.96-0.43,0.96-0.96V38.13c0-0.53-0.43-0.96-0.96-0.96H41.38z"/>
		</g>
		<g>
			<path class="st1" d="M46.22,57.37v-14.4h14.4v14.4H46.22z M48.19,55.4h10.46V44.94H48.19V55.4z"/>
		</g>
	</g>
</g>
</svg>
