<?xml version="1.0" encoding="utf-8"?>
<!-- Generator: Adobe Illustrator 23.0.1, SVG Export Plug-In . SVG Version: 6.00 Build 0)  -->
<svg version="1.1" id="图层_1" xmlns="http://www.w3.org/2000/svg" xmlns:xlink="http://www.w3.org/1999/xlink" x="0px" y="0px"
	 viewBox="0 0 106.83 133.33" style="enable-background:new 0 0 106.83 133.33;" xml:space="preserve">
<style type="text/css">
	.st0{fill:none;stroke:#FFFFFF;stroke-width:2.8346;stroke-miterlimit:10;}
	.st1{fill:#FFFFFF;}
	.st2{font-family:'SourceHanSansCN-Medium-GBpc-EUC-H';}
	.st3{font-size:18.5206px;}
</style>
<path class="st0" d="M84.95,131.92H21.89c-11.31,0-20.47-9.16-20.47-20.47V21.89c0-11.31,9.16-20.47,20.47-20.47h63.06
	c11.31,0,20.47,9.16,20.47,20.47v89.56C105.42,122.76,96.26,131.92,84.95,131.92z"/>
<text transform="matrix(1 0 0 1 16.5941 104.2952)" class="st1 st2 st3">三重保护</text>
<g>
	<g>
		<path class="st1" d="M53.06,72.96c-1.06,0-2.12-0.24-3.07-0.7L28.62,61.97c-0.95-0.46-1.34-1.6-0.89-2.54
			c0.32-0.66,0.99-1.08,1.72-1.08c0.29,0,0.56,0.06,0.82,0.19l21.36,10.29c0.44,0.21,0.94,0.32,1.43,0.32s0.98-0.11,1.43-0.32
			l21.65-10.29c0.26-0.12,0.53-0.18,0.82-0.18c0.73,0,1.41,0.43,1.72,1.09c0.45,0.95,0.05,2.09-0.9,2.54L56.12,72.27
			C55.17,72.72,54.11,72.96,53.06,72.96z M53.06,63.07c-1.06,0-2.12-0.24-3.07-0.7L28.62,52.08c-0.46-0.22-0.8-0.61-0.97-1.09
			s-0.14-1,0.08-1.46c0.32-0.66,0.99-1.08,1.72-1.08c0.29,0,0.56,0.06,0.82,0.19l21.36,10.29c0.44,0.21,0.94,0.32,1.43,0.32
			s0.98-0.11,1.43-0.32l21.65-10.29c0.26-0.12,0.53-0.19,0.82-0.19c0.73,0,1.41,0.43,1.72,1.09c0.45,0.95,0.05,2.09-0.9,2.54
			l-21.66,10.3C55.17,62.83,54.11,63.07,53.06,63.07z M53.05,52.25c-1.05,0-2.11-0.24-3.06-0.69L30.1,42.09
			c-2.25-1.07-3.2-3.77-2.13-6.01c0.44-0.93,1.2-1.69,2.13-2.13l19.89-9.47c0.95-0.45,2.01-0.69,3.06-0.69s2.11,0.24,3.06,0.69
			L76,33.95c1.09,0.52,1.91,1.43,2.31,2.57s0.34,2.36-0.18,3.45c-0.44,0.93-1.2,1.69-2.13,2.13l-19.89,9.47
			C55.17,52.01,54.11,52.25,53.05,52.25z M53.05,27.59c-0.49,0-0.98,0.11-1.42,0.32l-19.89,9.47c-0.16,0.07-0.29,0.21-0.36,0.39
			c-0.06,0.18-0.06,0.37,0.02,0.54l0.09,0.19l0.26,0.15l19.88,9.47c0.44,0.21,0.93,0.32,1.42,0.32s0.98-0.11,1.42-0.32l19.88-9.47
			c0.16-0.07,0.29-0.22,0.36-0.39c0.06-0.18,0.06-0.37-0.02-0.54l-0.09-0.19l-0.26-0.15l-19.88-9.47l0,0
			C54.04,27.7,53.54,27.59,53.05,27.59z"/>
	</g>
</g>
</svg>
